<svg width="65" height="86" viewBox="0 0 65 86" fill="none" xmlns="http://www.w3.org/2000/svg">
<path fill-rule="evenodd" clip-rule="evenodd" d="M7.18728 76.2653C7.18728 75.3392 8.51415 72.7391 8.93444 71.73C9.75557 69.76 14.3658 59.0222 14.7189 58.6668C15.0018 58.3832 16.347 57.8686 16.8469 57.6494C18.6943 56.8371 18.1578 58.0814 23.2832 59.838C26.4116 60.9091 25.515 59.8304 26.6698 62.7335C27.2952 64.3062 27.9961 65.5182 30.1671 65.5182C30.1128 66.1731 27.2675 72.2198 26.6409 73.5656L23.0098 81.5063C21.486 84.4147 19.0102 80.144 16.7349 78.2902C15.382 77.1879 11.2741 77.6529 8.82777 77.5993C7.9813 77.581 7.18728 77.2786 7.18728 76.2653ZM30.4977 0.711548H34.5415C35.915 0.836515 37.0844 1.23559 37.7723 2.36442C38.0087 2.75288 39.0527 5.32942 39.0946 5.83577C40.5205 5.83577 43.9317 7.34954 45.3222 8.0404C48.895 9.81587 46.6055 8.69649 50.664 7.63957C52.3428 7.20337 53.2765 8.27324 53.9745 8.81143C54.871 9.50405 55.5961 10.337 56.4155 11.1646C59.6092 14.3913 57.4605 15.7028 56.7437 18.0507C56.5233 18.771 57.5519 20.2129 58.1644 21.4843C59.8827 25.0536 59.2502 26.2337 60.5052 26.7489C61.1707 27.0212 61.634 27.1845 62.2901 27.4445C65.5322 28.7277 64.6863 30.6736 64.9327 32.4107C65.0983 33.5755 64.9097 33.4694 64.8814 34.5988C64.8331 36.5134 64.6987 37.4919 63.4737 38.3154C63.0081 38.629 60.5117 39.6794 59.9257 39.7284C59.4188 41.9029 58.508 44.2107 57.6126 46.0115C56.6795 47.8866 56.3642 47.3413 57.0421 48.8916C58.9272 53.2042 58.1856 52.7662 56.0535 55.5291C55.21 56.6231 54.0399 57.1577 53.3125 58.2447C53.6838 58.9462 54.0045 59.7502 54.3281 60.5348C55.3986 63.1291 60.7521 74.5252 60.7521 76.0991C60.7521 78.0367 59.5431 79.4738 58.1726 80.1328C56.6866 80.8467 54.047 80.569 51.9897 80.5625C50.2278 80.5578 50.3151 80.2902 49.3831 81.2634C47.9702 82.74 45.6777 85.3573 43.7236 85.3573C42.3437 85.3573 41.6451 85.3136 40.4615 84.3215C39.4064 83.4356 37.5637 79.0282 36.8976 77.4702C36.2722 76.006 32.7118 68.6123 32.6469 67.8336H32.3163C32.2496 68.637 29.6748 73.7784 29.1272 75.0599L26.4216 81.1167C26.2011 81.5723 26.0596 81.8228 25.8922 82.2402C24.9538 84.5857 23.5526 85.3573 21.2396 85.3573C18.1967 85.3573 16.0569 80.7264 14.4666 80.5578C12.7076 80.3716 8.71396 81.0211 6.6856 80.0727C5.41117 79.4767 4.21105 77.9701 4.21105 76.0991C4.21105 74.8825 6.18047 70.7114 6.86071 69.1605C7.16959 68.4561 7.54863 67.6597 7.82568 66.9836C8.4458 65.4698 9.05115 64.1123 9.72314 62.5991L11.6507 58.2447C10.9233 57.1577 9.75379 56.6231 8.91026 55.5291C6.81471 52.8134 6.0107 53.2619 7.92175 48.8916C8.50061 47.5671 8.39864 47.8677 7.69069 46.664C6.73044 45.0324 5.5102 41.7543 5.03745 39.7284C4.37843 39.6729 1.83194 38.563 1.3922 38.2488C0.261007 37.4407 0.128983 36.4686 0.0824149 34.5988C-0.0148472 30.7278 -0.489988 28.8038 2.67486 27.445C6.97915 25.5971 3.81489 27.6808 6.79877 21.4843C7.41005 20.2158 8.43515 18.7557 8.22 18.0507C7.34228 15.1782 5.69706 14.7644 8.0119 11.7865L10.9893 8.81143C11.6295 8.31804 12.6257 7.20219 14.2992 7.63957C18.5663 8.75779 16.1577 9.78108 19.6391 8.03861C21.0509 7.33184 24.4198 5.86878 25.8687 5.83577C25.9123 5.31173 26.9757 2.67978 27.2556 2.26362C27.8823 1.3358 29.0146 0.711548 30.4977 0.711548ZM34.7962 65.5182C35.9321 65.5182 36.505 65.2535 37.1446 64.7259C38.0677 63.9643 38.7644 61.2545 39.0462 60.8407C39.2466 60.5466 39.0356 60.7677 39.2926 60.5914C39.5325 60.4275 41.1983 60.0025 41.6799 59.838C46.5619 58.1646 46.3332 56.8648 48.1163 57.6494C50.9122 58.8796 50.1966 58.0956 52.2261 62.9681L56.0287 71.7306C56.8257 73.6334 58.4874 76.1704 57.3916 77.2026C56.0865 78.4304 50.252 76.6078 48.2301 78.2913C47.3058 79.0612 46.2271 80.289 45.3358 81.1826C44.6532 81.8688 43.0658 83.6283 41.954 81.5063L35.1805 66.6222C34.9665 66.173 34.9524 65.8683 34.7962 65.5182ZM17.9333 12.1189C18.5899 12.1189 21.9652 9.82822 24.9114 9.01181C25.6382 8.8108 26.1563 8.66343 26.866 8.48659C28.8419 7.99851 28.1652 6.8461 29.8364 3.68715C30.9811 3.68715 31.5134 3.52153 32.4819 3.52153C33.4498 3.52153 33.9821 3.68715 35.1268 3.68715C37.6981 8.54672 35.283 7.70201 39.9233 8.97526C41.0622 9.28885 42.438 9.85771 43.5061 10.3523C47.1809 12.0552 45.673 13.0344 50.5072 10.7909C51.2853 10.4301 51.4722 10.4425 52.1094 11.003L54.5928 13.4859C55.9539 15.0332 53.4781 16.768 53.4781 18.7321C53.4781 19.1112 54.1478 20.1009 54.3771 20.4782C55.4935 22.3155 56.2492 24.2855 56.857 26.4288C57.5272 28.7914 57.1133 28.522 59.335 29.4068C62.2906 30.5846 62.0749 29.7404 62.0749 33.7759C62.0749 34.7816 61.9093 34.982 61.9093 35.9257L58.3359 37.3115C56.6949 38.0395 57.1947 40.233 55.1864 44.2466C53.1698 48.2774 53.0207 46.7843 54.281 49.836C55.276 52.2463 55.7311 51.7629 53.4369 54.0707C51.1597 56.3602 51.4233 55.9281 49.175 54.942C45.047 53.1323 47.9018 54.784 39.737 57.3988C37.8166 58.0137 37.2153 57.5385 36.4691 59.4213C34.871 63.4521 36.1478 62.7082 30.4977 62.7082C29.4308 62.7082 29.3064 61.4974 28.5401 59.5404C27.8186 57.6971 27.2663 57.9423 25.3723 57.4183C23.9623 57.0287 22.8252 56.5305 21.5219 55.9782C17.8472 54.4208 19.3975 53.394 15.9031 54.8918C13.4297 55.9523 13.7822 56.326 11.6089 54.1526C9.23802 51.7818 9.66712 52.2994 10.635 49.9545C11.956 46.7554 11.7934 48.2786 9.83223 44.3569C6.42098 37.5362 9.48739 38.4663 4.96676 36.6572C4.34075 36.4067 3.63927 36.0613 3.05393 35.9257C3.05393 34.9985 2.67314 32.6436 2.99205 31.0691C3.13588 30.3564 2.89416 30.571 3.48716 30.2421L5.51023 29.4545C9.06118 28.0374 6.81531 28.3133 9.55574 22.4228C11.5263 18.1869 12.3162 19.9093 10.1605 15.2567C9.80271 14.4856 9.75027 14.2292 10.2926 13.5761L12.7666 11.0826C14.3552 9.61954 15.9373 12.1189 17.9333 12.1189Z" fill="#0072BA"/>
<path fill-rule="evenodd" clip-rule="evenodd" d="M12.8079 33.941C12.8079 26.5131 15.3502 22.0685 19.8744 18.0272C20.3489 17.6033 20.7433 17.3027 21.2702 16.9437C22.1992 16.3106 23.2373 15.684 24.3325 15.2112C29.8547 12.831 34.9884 12.8617 40.514 15.1635C42.3585 15.931 44.8207 17.5921 46.2478 19.018C48.0156 20.7853 49.1067 22.4033 50.2278 24.6274C52.2585 28.6564 52.6818 33.4907 51.5612 37.9759C50.9959 40.2389 49.9726 42.5384 48.6835 44.3563C45.3341 49.0797 39.5343 52.7881 33.4734 52.7881C29.7315 52.7881 27.2834 52.5982 23.8286 50.8616C20.0088 48.9412 16.373 45.458 14.6281 41.5445C13.7681 39.6152 12.8079 36.7032 12.8079 33.941ZM9.83228 33.2802C9.83228 42.3114 15.1103 49.6933 22.7823 53.5608C28.5685 56.4769 36.297 56.5312 42.0714 53.6157C43.4024 52.9443 44.365 52.462 45.5422 51.6309C56.6248 43.8063 58.6507 28.2267 48.5614 17.2001L45.4773 14.6636C42.9002 12.9601 40.7239 11.8696 37.6109 11.1233C32.9482 10.0051 27.6259 10.4767 23.278 12.5038C19.0957 14.4532 16.6512 16.5411 13.9391 20.1935C13.5506 20.7163 13.1975 21.3199 12.865 21.93C11.0188 25.3171 9.83228 28.7071 9.83228 33.2802Z" fill="#FF952B"/>
<path fill-rule="evenodd" clip-rule="evenodd" d="M22.728 38.9014C22.728 37.9529 23.3257 37.413 24.0507 37.413C25.2332 37.413 25.6276 39.0664 26.8613 39.0664C27.7915 39.0664 29.4968 37.0092 30.4571 36.0495C31.6272 34.8789 32.6764 33.8302 33.8459 32.6601L38.8888 27.6184C39.3993 27.1067 40.0253 26.1718 40.9136 26.1718C42.036 26.1718 42.2364 26.9641 42.2364 27.8247C42.2364 28.5898 33.8742 36.5995 32.7719 37.703L27.8604 42.5478C26.5129 43.5068 25.8286 42.5838 24.9184 41.6707C24.3219 41.0724 22.728 39.8504 22.728 38.9014ZM26.8613 35.5944C24.9615 34.3224 22.7627 34.1178 21.0297 35.7153C20.1349 36.5387 19.7523 37.7071 19.7523 39.0664C19.7523 40.8879 21.381 42.2667 22.356 43.241C24.0625 44.9476 24.6437 45.8453 27.192 45.8453C28.5914 45.8453 29.4031 45.0471 30.1269 44.3162L43.6835 30.7596C44.1628 30.2851 44.4328 30.1106 44.7222 29.484C46.2566 26.1647 43.5591 23.3606 41.4099 23.3606C38.7167 23.3606 38.508 23.8658 36.4915 25.8824C35.1905 27.1833 27.3359 34.8859 26.8613 35.5944Z" fill="#FF952B"/>
</svg>
