<svg width="94" height="72" viewBox="0 0 94 72" fill="none" xmlns="http://www.w3.org/2000/svg">
<path fill-rule="evenodd" clip-rule="evenodd" d="M61.1477 63.7039H81.348C82.7766 63.7039 83.4175 63.5222 84.8056 63.5222V68.9814H61.1477V63.7039ZM93.1772 52.7981V54.2918C93.0442 56.0685 92.4389 57.815 91.3967 59.3755C90.7197 60.3914 88.9818 62.1357 87.7175 62.4302C87.7175 64.3103 87.7098 66.1916 87.718 68.0717C87.7246 69.5731 87.6299 71.7115 85.7158 71.7115H27.2983C25.8571 71.7115 25.4784 70.2354 26.249 69.3881C26.9195 68.6508 31.1592 68.9814 32.9398 68.9814V34.9497H2.72961V68.9814H20.9283C22.838 68.9814 22.8692 71.7115 20.9283 71.7115H2.00219C1.02463 71.7115 0 70.6864 0 69.7094V34.2217C0 31.6169 3.81828 32.2195 5.45976 32.2195V10.5638C5.45976 9.89609 4.23043 9.62076 5.03886 8.33614L5.47564 7.12156C5.56102 4.63935 4.77613 0.736284 7.27969 0.736284C17.6513 0.736284 15.2167 -0.0409672 15.6382 7.1183C15.7197 8.50473 16.3788 7.84298 16.3788 9.10734C16.3788 10.1506 15.9031 9.57969 15.6754 10.5879C15.3952 11.8304 16.3415 15.1128 14.3771 15.1128C12.4116 15.1128 12.9212 12.6892 12.9212 10.5638H8.37165V32.2195H12.9212V20.0269C12.9212 18.6705 14.5085 18.0641 15.3311 19.0734C15.5544 19.3476 15.6508 19.5813 15.6508 20.0269V32.2195H20.0186V10.5638C20.0186 9.49707 18.5791 10.0904 19.7619 8.12325C20.7685 6.44947 18.6754 0.736284 21.8385 0.736284C32.1768 0.736284 29.7821 0.0701438 30.197 7.1183C30.2786 8.50473 30.9376 7.84298 30.9376 9.10734C30.9376 10.184 30.2096 9.75651 30.2096 10.5638V32.2195H32.9398V10.1998C32.9398 8.83476 33.827 7.65143 35.1237 7.65143H58.5998C60.2129 7.65143 61.1477 8.78605 61.1477 10.3821V20.5731C61.1477 22.5863 58.2358 22.8446 58.2358 20.5731V10.5638H35.8516V68.9814H38.9452V55.3328C38.9452 53.6119 40.1396 52.9666 41.8571 52.9666H52.2304C54.2971 52.9666 55.1417 53.8106 55.1417 55.8785V68.9814H58.2358V27.3066C58.2358 25.0356 61.1477 25.2929 61.1477 27.3066V43.6853H65.879V34.9497C65.879 32.8829 66.7241 32.0378 68.7909 32.0378H77.8905C79.9572 32.0378 80.8023 32.8829 80.8023 34.9497V43.6853H83.7137C87.2342 43.6853 90.8215 46.1943 92.2698 49.3235C92.7903 50.4477 93.0891 51.6202 93.1772 52.7981ZM41.8571 55.8785H52.2304V68.9814H41.8571V55.8785ZM83.168 60.792H61.1477V46.4155H81.712C85.4772 46.4155 87.9742 47.3416 89.6003 50.3558C92.0568 54.9103 88.6874 60.792 83.168 60.792ZM68.7909 34.9497H77.8905V43.6853H68.7909V34.9497ZM22.9305 10.5638H27.48V32.2195H22.9305V10.5638ZM22.9305 3.46643H27.48V7.65143H22.9305V3.46643ZM8.37165 3.46643H12.9212V7.65143H8.37165V3.46643Z" fill="#0072BA"/>
<path fill-rule="evenodd" clip-rule="evenodd" d="M22.3913 41.9935H25.1215V44.7236H22.3913V41.9935ZM19.4795 41.4472C19.4795 48.4127 19.052 47.6355 26.0312 47.6355C28.6973 47.6355 28.0333 43.9229 28.0333 41.0832C28.0333 38.4976 24.4258 39.0821 21.8456 39.0821C20.37 39.0821 19.4795 39.9726 19.4795 41.4472Z" fill="#FF952B"/>
<path fill-rule="evenodd" clip-rule="evenodd" d="M10.7445 41.9935H13.4741V44.7236H10.7445V41.9935ZM7.83263 41.0833C7.83263 48.2666 7.0587 47.6355 14.3844 47.6355C16.9372 47.6355 16.386 43.8156 16.386 41.8112C16.386 38.4259 13.8529 39.0821 10.1988 39.0821C8.88244 39.0821 7.83263 39.8096 7.83263 41.0833Z" fill="#FF952B"/>
<path fill-rule="evenodd" clip-rule="evenodd" d="M22.3915 54.005H25.1217V56.9163H22.3915V54.005ZM19.4797 53.641C19.4797 59.7084 18.9466 59.8282 24.9395 59.8282C28.7742 59.8282 28.0336 57.7894 28.0336 53.4594C28.0336 50.5508 25.1633 51.2749 21.2996 51.2749C20.1179 51.2749 19.4797 52.4435 19.4797 53.641Z" fill="#FF952B"/>
<path fill-rule="evenodd" clip-rule="evenodd" d="M10.7444 54.0049H13.474V56.9162H10.7444V54.0049ZM7.83255 53.0952C7.83255 59.6968 7.0378 59.8281 13.11 59.8281C17.0361 59.8281 16.3859 57.7991 16.3859 53.6409C16.3859 50.5468 13.4768 51.2748 9.65247 51.2748C8.73731 51.2748 7.83255 52.1795 7.83255 53.0952Z" fill="#FF952B"/>
<path fill-rule="evenodd" clip-rule="evenodd" d="M82.4471 51.4565C86.7454 51.4565 83.9506 56.8752 81.5817 54.5057C81.1197 54.0449 80.9555 53.2693 81.1235 52.6979C81.3321 51.9875 81.996 51.4565 82.4471 51.4565ZM78.2615 53.0953C78.2615 59.5857 87.5428 59.1451 87.5428 53.277C87.5428 47.0712 78.2615 47.0969 78.2615 53.0953Z" fill="#FF952B"/>
<path fill-rule="evenodd" clip-rule="evenodd" d="M69.1618 55.0969C66.7628 55.0969 66.1985 51.4565 69.1618 51.4565C70.569 51.4565 71.3665 53.324 70.309 54.4237C70.1612 54.5775 69.3063 55.0969 69.1618 55.0969ZM64.2483 53.0953C64.2483 55.7899 66.2182 57.826 69.344 57.826C71.4179 57.826 73.5296 55.7149 73.5296 53.641V52.7313C73.5296 49.2666 68.6139 46.9595 65.7414 49.8566C65.0594 50.5441 64.2483 51.8134 64.2483 53.0953Z" fill="#FF952B"/>
<path fill-rule="evenodd" clip-rule="evenodd" d="M38.9526 41.6296C38.9526 42.5956 39.4228 43.2678 40.4086 43.2678H53.8754C55.1184 43.2678 56.0029 40.3554 52.9657 40.3554C50.9723 40.3554 40.7928 40.1101 39.7665 40.6236C39.4671 40.7741 38.9526 41.3619 38.9526 41.6296Z" fill="#FF952B"/>
<path fill-rule="evenodd" clip-rule="evenodd" d="M38.9526 26.3427C38.9526 27.1966 39.708 27.7992 40.5903 27.7992H53.5115C55.5673 27.7992 55.5673 24.8868 53.5115 24.8868H40.5903C39.7791 24.8868 38.9526 25.6241 38.9526 26.3427Z" fill="#FF952B"/>
<path fill-rule="evenodd" clip-rule="evenodd" d="M38.9526 34.1681C38.9526 35.2781 40.1535 35.6245 41.3182 35.6245H52.9657C55.9526 35.6245 55.2126 32.7121 53.8754 32.7121H40.4086C39.9362 32.7121 39.604 32.8506 39.3593 33.1188C39.1874 33.3082 38.9526 33.8813 38.9526 34.1681Z" fill="#FF952B"/>
<path fill-rule="evenodd" clip-rule="evenodd" d="M38.9526 18.3355C38.9526 19.3021 39.4228 19.9738 40.4086 19.9738H53.6937C55.4951 19.9738 55.4951 17.243 53.6937 17.243H40.4086C39.963 17.243 39.7288 17.3394 39.4545 17.5638C39.2892 17.6979 38.9526 18.1839 38.9526 18.3355Z" fill="#FF952B"/>
</svg>
