<svg width="85" height="80" viewBox="0 0 85 80" fill="none" xmlns="http://www.w3.org/2000/svg">
<path d="M1.36139 34.7473H8.91439C9.36113 36.3578 10.0044 37.9074 10.8321 39.3602L5.48636 44.7041C5.23087 44.9589 5.08725 45.3054 5.08725 45.6671C5.08725 46.0285 5.23087 46.375 5.48636 46.6298L11.2619 52.4072C11.7936 52.9378 12.655 52.9378 13.1868 52.4072L18.5333 47.0599C19.9854 47.8869 21.5335 48.5309 23.1443 48.9773V56.5303C23.1443 57.2824 23.754 57.8916 24.5061 57.8916H32.6744C33.4265 57.8916 34.0362 57.2824 34.0362 56.5303V48.9773C35.647 48.5309 37.1951 47.8869 38.6472 47.0599L43.9937 52.4072C44.5338 52.9174 45.3789 52.9174 45.9186 52.4072L51.6952 46.6298C51.9507 46.375 52.0944 46.0285 52.0944 45.6671C52.0944 45.3054 51.9507 44.9589 51.6952 44.7041L46.3483 39.3602C47.1761 37.9074 47.8193 36.3578 48.2661 34.7473H55.8191C56.5712 34.7473 57.1805 34.1377 57.1805 33.386V25.2169C57.1805 24.4655 56.5712 23.8559 55.8191 23.8559H48.2661C47.8193 22.2454 47.1761 20.6954 46.3487 19.2433L51.6945 13.8998C51.9496 13.6443 52.0932 13.2981 52.0932 12.9364C52.0932 12.5747 51.9496 12.2289 51.6945 11.9734L45.919 6.1964C45.3872 5.66462 44.5255 5.66462 43.9937 6.1964L38.6472 11.5433C37.1951 10.7163 35.6462 10.0723 34.0362 9.62594V2.07293C34.0362 1.32119 33.4265 0.711548 32.6748 0.711548H24.5061C23.754 0.711548 23.1443 1.32119 23.1443 2.07293V9.62594C21.5342 10.0723 19.9854 10.7163 18.5333 11.5433L13.1868 6.1964C12.6467 5.68541 11.8016 5.68541 11.2619 6.1964L5.48523 11.9734C5.22973 12.2289 5.08611 12.5747 5.08611 12.9364C5.08611 13.2981 5.22973 13.6443 5.48523 13.8998L10.8321 19.2433C10.0044 20.6954 9.36113 22.2454 8.91439 23.8559H1.36139C0.609261 23.8559 0 24.4655 0 25.2169V33.386C0 34.1377 0.609261 34.7473 1.36139 34.7473ZM2.72277 26.5786H9.97947C10.6193 26.5786 11.173 26.1334 11.3095 25.5087C11.7562 23.4696 12.5639 21.5262 13.6947 19.7717C14.0398 19.2331 13.9635 18.5263 13.5107 18.0739L8.37279 12.9357L12.2241 9.08435L17.3609 14.2222C17.8137 14.6754 18.5208 14.7521 19.0602 14.4067C20.8157 13.2762 22.7584 12.4685 24.7975 12.0214C25.4219 11.8842 25.8675 11.3305 25.8675 10.6906V3.43395H31.313V10.691C31.313 11.3305 31.7586 11.8842 32.383 12.0214C34.422 12.4685 36.3647 13.2762 38.1203 14.4067C38.6597 14.7521 39.3668 14.6754 39.8196 14.2222L44.9563 9.08435L48.8065 12.9357L43.6698 18.0721C43.2163 18.5256 43.1403 19.2328 43.4857 19.7717C44.6166 21.5277 45.4231 23.4703 45.8695 25.5094C46.0067 26.1342 46.5604 26.5805 47.1995 26.5805L54.4577 26.5798V32.0257H47.1995C46.56 32.0257 46.0067 32.4713 45.8695 33.0957C45.4231 35.1347 44.6158 37.0774 43.4857 38.8319C43.1407 39.3701 43.217 40.0768 43.6698 40.5293L48.8077 45.6664L44.9563 49.5192L39.8196 44.381C39.3668 43.9278 38.6597 43.8515 38.1203 44.1973C36.3659 45.3274 34.4236 46.1354 32.3849 46.5818C31.7594 46.7186 31.313 47.2723 31.313 47.9122V55.1689H25.8675V47.9118C25.8675 47.2723 25.4211 46.7186 24.7956 46.5818C22.7569 46.1354 20.8146 45.3274 19.0602 44.1973C18.5208 43.8515 17.8137 43.9278 17.3609 44.3806L12.2241 49.5192L8.37392 45.6671L13.5107 40.5308C13.9642 40.0784 14.0402 39.3704 13.6947 38.8319C12.5639 37.0759 11.7562 35.1325 11.3095 33.0934C11.1723 32.4687 10.6193 32.0242 9.97947 32.0242H2.72277V26.5786Z" fill="#FF952B"/>
<path d="M28.5902 40.1929C34.6057 40.1929 39.4817 35.3173 39.4817 29.3014C39.4817 23.2859 34.6057 18.4099 28.5902 18.4099C22.5747 18.4099 17.6987 23.2859 17.6987 29.3014C17.7052 35.3135 22.5781 40.1864 28.5902 40.1929ZM28.5902 21.1327C33.1011 21.1327 36.7589 24.7909 36.7589 29.3014C36.7589 33.813 33.1011 37.4701 28.5902 37.4701C24.0793 37.4701 20.4215 33.813 20.4215 29.3014C20.4264 24.7917 24.0805 21.1373 28.5902 21.1327Z" fill="#FF952B"/>
<path d="M28.5903 44.2774C36.861 44.2774 43.5663 37.5729 43.5663 29.3014C43.5663 21.031 36.861 14.3254 28.5903 14.3254C20.3195 14.3254 13.6143 21.0307 13.6143 29.3014C13.6245 37.5687 20.3233 44.268 28.5903 44.2774ZM28.5903 17.0482C35.3575 17.0482 40.8431 22.5338 40.8431 29.3014C40.8431 36.069 35.3575 41.5546 28.5903 41.5546C21.823 41.5546 16.3374 36.069 16.3374 29.3014C16.3446 22.5379 21.826 17.0561 28.5903 17.0482Z" fill="#FF952B"/>
<path d="M77.602 63.3375V52.4461C77.602 51.6943 76.9928 51.0843 76.2406 51.0843H73.5179V40.1928C73.5179 39.4411 72.9082 38.8318 72.1565 38.8318H59.9032C59.1515 38.8318 58.5419 39.4411 58.5419 40.1928V51.0843H51.7346C50.9828 51.0843 50.3732 51.6943 50.3732 52.4461V63.3375H6.80731C3.04932 63.3425 0.00491339 66.3869 0 70.1449V72.8672C0.00491339 76.6256 3.04932 79.6708 6.80731 79.6746H77.602C81.36 79.6708 84.4044 76.6256 84.4093 72.8672V70.1449C84.4044 66.3869 81.36 63.3425 77.602 63.3375ZM74.8792 63.3375H65.3492V53.8071H74.8792V63.3375ZM61.2646 41.5546H70.7947V51.0843H61.2646V41.5546ZM53.0963 53.8071H62.6264V63.3375H53.0963V53.8071ZM81.6866 72.8672C81.6866 75.1232 79.8576 76.9518 77.602 76.9518H6.80731C4.55168 76.9518 2.72277 75.1232 2.72277 72.8672V70.1449C2.72277 67.8889 4.55168 66.0603 6.80731 66.0603H77.602C79.8576 66.0603 81.6866 67.8889 81.6866 70.1449V72.8672Z" fill="#0072BA"/>
<path d="M42.2045 67.4221C39.9493 67.4221 38.1204 69.251 38.1204 71.5063C38.1204 73.7623 39.9493 75.5901 42.2045 75.5901C44.4601 75.5901 46.2891 73.7623 46.2891 71.5063C46.2891 69.251 44.4601 67.4221 42.2045 67.4221ZM42.2045 72.8673C41.4528 72.8673 40.8431 72.2584 40.8431 71.5063C40.8431 70.7549 41.4528 70.1449 42.2045 70.1449C42.9566 70.1449 43.5663 70.7549 43.5663 71.5063C43.5663 72.2584 42.9566 72.8673 42.2045 72.8673Z" fill="#0072BA"/>
<path d="M28.5903 67.4221C26.335 67.4221 24.5061 69.251 24.5061 71.5063C24.5061 73.7623 26.335 75.5901 28.5903 75.5901C30.8455 75.5901 32.6744 73.7623 32.6744 71.5063C32.6744 69.251 30.8455 67.4221 28.5903 67.4221ZM28.5903 72.8673C27.8381 72.8673 27.2289 72.2584 27.2289 71.5063C27.2289 70.7549 27.8381 70.1449 28.5903 70.1449C29.3424 70.1449 29.9516 70.7549 29.9516 71.5063C29.9516 72.2584 29.3424 72.8673 28.5903 72.8673Z" fill="#0072BA"/>
<path d="M55.8192 67.4221C53.5635 67.4221 51.7346 69.251 51.7346 71.5063C51.7346 73.7623 53.5635 75.5901 55.8192 75.5901C58.0744 75.5901 59.9033 73.7623 59.9033 71.5063C59.9033 69.251 58.0744 67.4221 55.8192 67.4221ZM55.8192 72.8673C55.067 72.8673 54.4578 72.2584 54.4578 71.5063C54.4578 70.7549 55.067 70.1449 55.8192 70.1449C56.5713 70.1449 57.1805 70.7549 57.1805 71.5063C57.1805 72.2584 56.5713 72.8673 55.8192 72.8673Z" fill="#0072BA"/>
<path d="M14.9759 67.4221C12.7203 67.4221 10.8914 69.251 10.8914 71.5063C10.8914 73.7623 12.7203 75.5901 14.9759 75.5901C17.2311 75.5901 19.06 73.7623 19.06 71.5063C19.06 69.251 17.2311 67.4221 14.9759 67.4221ZM14.9759 72.8673C14.2238 72.8673 13.6141 72.2584 13.6141 71.5063C13.6141 70.7549 14.2238 70.1449 14.9759 70.1449C15.7276 70.1449 16.3373 70.7549 16.3373 71.5063C16.3373 72.2584 15.7276 72.8673 14.9759 72.8673Z" fill="#0072BA"/>
<path d="M69.4333 67.4221C67.178 67.4221 65.3491 69.251 65.3491 71.5063C65.3491 73.7623 67.178 75.5901 69.4333 75.5901C71.6889 75.5901 73.5178 73.7623 73.5178 71.5063C73.5178 69.251 71.6889 67.4221 69.4333 67.4221ZM69.4333 72.8673C68.6815 72.8673 68.0719 72.2584 68.0719 71.5063C68.0719 70.7549 68.6815 70.1449 69.4333 70.1449C70.1854 70.1449 70.7947 70.7549 70.7947 71.5063C70.7947 72.2584 70.1854 72.8673 69.4333 72.8673Z" fill="#0072BA"/>
</svg>
