<svg width="89" height="78" viewBox="0 0 89 78" fill="none" xmlns="http://www.w3.org/2000/svg">
<path d="M67.9853 42.5353C59.5855 42.5851 52.7923 49.459 52.8421 57.8588C52.8918 66.2585 59.7662 73.0518 68.166 73.002C76.5658 72.9523 83.3595 66.0778 83.3098 57.678C83.2601 49.2783 76.3856 42.4856 67.9853 42.5353ZM68.1505 70.4293C61.1691 70.471 55.4554 64.8257 55.4142 57.8438C55.3725 50.8619 61.0189 45.1481 68.0003 45.107C74.9822 45.0658 80.696 50.7116 80.7377 57.6936C80.7788 64.6755 75.1324 70.3881 68.1505 70.4293Z" fill="#FF952B"/>
<path d="M46.8067 21.6564L15.6209 21.8414C14.9109 21.8457 14.3383 22.4247 14.3426 23.1347C14.3468 23.8452 14.9259 24.4168 15.6359 24.413L46.8217 24.2281C47.5322 24.2238 48.1043 23.6453 48.1 22.9347C48.0957 22.2247 47.5172 21.6521 46.8067 21.6564Z" fill="#FF952B"/>
<path d="M68.0086 46.4709C67.2985 46.4751 66.7265 47.0542 66.7307 47.7647L66.7366 48.7838C66.7409 49.4949 67.3199 50.0669 68.0299 50.0626C68.7405 50.0584 69.3131 49.4799 69.3088 48.7688L69.3029 47.7497C69.2987 47.0392 68.7191 46.4666 68.0086 46.4709Z" fill="#FF952B"/>
<path d="M75.7827 57.7229C75.787 58.4335 76.3655 59.005 77.0761 59.0008L78.0956 58.9949C78.8057 58.9906 79.3783 58.4121 79.374 57.7016C79.3697 56.9916 78.7902 56.419 78.0801 56.4232L77.0606 56.4297C76.35 56.4339 75.7785 57.0129 75.7827 57.7229Z" fill="#FF952B"/>
<path d="M68.1214 65.4754C67.4114 65.4797 66.8388 66.0587 66.843 66.7682L66.8495 67.7883C66.8537 68.4988 67.4328 69.0698 68.1428 69.0656C68.8533 69.0618 69.4259 68.4833 69.4217 67.7728L69.4152 66.7527C69.411 66.0432 68.8319 65.4711 68.1214 65.4754Z" fill="#FF952B"/>
<path d="M59.0757 56.5361L58.0562 56.5419C57.3456 56.5462 56.7741 57.1258 56.7783 57.8353C56.7826 58.5458 57.3611 59.1179 58.0717 59.1136L59.0913 59.1077C59.8018 59.1034 60.3738 58.5249 60.3695 57.8144C60.3653 57.1044 59.7863 56.5318 59.0757 56.5361Z" fill="#FF952B"/>
<path d="M68.0377 51.3981C67.3277 51.4024 66.7551 51.9814 66.7593 52.692L66.778 55.8293L65.5863 55.3283C64.9314 55.0535 64.1781 55.3615 63.9028 56.0159C63.6274 56.6713 63.9359 57.4241 64.5908 57.7L67.5779 58.9543C67.9783 59.1227 68.4333 59.0767 68.791 58.8372C69.1497 58.5971 69.3636 58.1935 69.3614 57.7604L69.331 52.6765C69.3272 51.9659 68.7482 51.3939 68.0377 51.3981Z" fill="#FF952B"/>
<path d="M12.2974 51.7285C11.5869 51.7323 11.0143 52.3118 11.0186 53.0224C11.0229 53.7324 11.6024 54.304 12.313 54.2997L19.0815 54.2596C19.7921 54.2553 20.3641 53.6768 20.3599 52.9668C20.3556 52.2562 19.7766 51.6842 19.0661 51.6884L12.2974 51.7285Z" fill="#FF952B"/>
<path d="M85.1481 47.4557C84.7803 46.8478 83.9895 46.6543 83.3822 47.0221C82.7748 47.3889 82.5797 48.1796 82.9475 48.7875C84.5643 51.458 85.4288 54.5285 85.4475 57.6658C85.5042 67.2439 77.7572 75.0829 68.1785 75.1396C58.5998 75.1962 50.7614 67.4503 50.7047 57.8716C50.6475 48.2935 58.394 40.455 67.9727 40.3978C72.4792 40.3711 76.7611 42.0638 80.0304 45.1652C80.5453 45.655 81.3596 45.6331 81.8482 45.1182C82.3369 44.6023 82.3161 43.7886 81.8002 43.2999C78.047 39.7392 73.1314 37.7946 67.9577 37.8256C65.0417 37.8427 62.2728 38.4892 59.7803 39.6328L59.7616 36.4543C61.4382 35.5411 62.4883 33.7837 62.477 31.8435L62.4048 19.6477C62.3877 16.7703 60.0326 14.443 57.1546 14.4601L48.4442 14.512L48.4159 9.73649C48.386 4.73115 44.2889 0.682302 39.2836 0.711707L22.8951 0.809029C17.8893 0.838969 13.8409 4.93539 13.8709 9.94127L13.8992 14.7167L5.14338 14.7686C5.12841 14.7686 5.11344 14.7686 5.099 14.7686C2.26218 14.8343 -0.0170129 17.1697 9.56909e-05 20.0177L0.0722518 32.2135C0.0834793 34.1537 1.15494 35.8982 2.84227 36.7916L2.94168 53.6068C2.96735 57.8914 6.4741 61.3569 10.7598 61.3318L20.2936 61.2752C21.0041 61.2709 21.5762 60.6924 21.5719 59.9824C21.5676 59.2719 20.9892 58.6998 20.2786 58.7041L10.7448 58.7607C7.877 58.7778 5.53099 56.458 5.51388 53.5918L5.42084 37.869L9.41464 39.4916C10.0514 39.7504 10.7234 39.8803 11.411 39.876L26.5083 39.7867L26.5174 41.3623C26.528 43.1828 28.0181 44.6547 29.8381 44.644L32.8609 44.6263C34.6814 44.6151 36.1527 43.1256 36.142 41.3051L36.133 39.7295L51.2308 39.6402C51.9178 39.636 52.5877 39.4986 53.2213 39.2318L57.1958 37.5621L57.2166 41.048C51.7178 44.6306 48.0908 50.8501 48.1325 57.8866C48.1336 58.1047 48.1379 58.3223 48.1464 58.5389L25.2513 58.6747C24.5408 58.6789 23.9682 59.2574 23.9725 59.9679C23.9767 60.6779 24.5558 61.25 25.2663 61.2458L48.4116 61.1083C50.0134 70.5683 58.2945 77.77 68.1945 77.7112C79.1911 77.646 88.0849 68.6463 88.0197 57.6503C87.9983 54.0484 87.0055 50.5234 85.1481 47.4557ZM16.4425 9.92633C16.4212 6.33834 19.3227 3.40313 22.9106 3.38174L39.2986 3.28442C42.8866 3.26304 45.8223 6.164 45.8437 9.752L45.8721 14.5269L43.2961 14.5424L43.2678 9.76698C43.255 7.59954 41.481 5.84645 39.3136 5.85928L31.5938 5.90528C30.8838 5.90955 30.3118 6.48853 30.316 7.19907C30.3198 7.91015 30.8993 8.48169 31.6093 8.47742L39.3291 8.43199C40.0781 8.42771 40.6913 9.03292 40.6956 9.78249L40.724 14.5574L21.619 14.6707L21.5906 9.89584C21.5864 9.14627 22.1921 8.53354 22.9411 8.52926L26.6371 8.50738C27.3477 8.50311 27.9192 7.92409 27.9155 7.21301C27.9112 6.50247 27.3322 5.93039 26.6216 5.93467L22.9256 5.9566C20.7582 5.96943 19.0056 7.74338 19.0184 9.91083L19.0468 14.6862L16.4709 14.7012L16.4425 9.92633ZM33.5699 41.3206C33.5725 41.7227 33.2475 42.0509 32.8454 42.0536L29.8225 42.0712C29.421 42.0739 29.0922 41.7489 29.0895 41.3468L29.05 34.6242C29.0473 34.2216 29.3724 33.8928 29.7739 33.8907L32.7968 33.8725C33.1988 33.8704 33.5276 34.1949 33.5303 34.5975L33.5699 41.3206ZM52.2252 36.8612C51.9034 36.9959 51.5638 37.0654 51.2153 37.0675L36.1175 37.1573L36.1025 34.5825C36.0912 32.7626 34.6022 31.2902 32.7818 31.3009L29.759 31.319C27.939 31.3297 26.4666 32.8198 26.4778 34.6392L26.4928 37.214L11.3955 37.3038C11.0469 37.3054 10.7058 37.2402 10.3834 37.1092L4.2949 34.6349C3.29832 34.2302 2.65086 33.2742 2.64444 32.1985L2.57229 20.0022C2.56373 18.5432 3.74369 17.3482 5.20327 17.3397L57.1701 17.0317C58.6297 17.0232 59.8247 18.2031 59.8332 19.6632L59.9054 31.859C59.9118 32.9347 59.275 33.8987 58.2838 34.3152L52.2252 36.8612Z" fill="#0072BA"/>
</svg>
