<svg width="77" height="81" viewBox="0 0 77 81" fill="none" xmlns="http://www.w3.org/2000/svg">
<path fill-rule="evenodd" clip-rule="evenodd" d="M47.2214 66.6099C46.0573 68.8595 45.7689 71.7228 46.7769 74.0797H47.1337C48.8398 74.0797 50.2284 75.468 50.2284 77.1744C50.2284 78.8805 48.8409 80.2702 47.1337 80.2702H29.1851C27.4783 80.2702 26.0908 78.8805 26.0908 77.1744C26.0908 75.4672 27.4783 74.0797 29.1851 74.0797H29.5438C30.5514 71.7228 30.2619 68.8595 29.0993 66.6099H6.07105C2.72466 66.6099 0 63.8875 0 60.5407V22.0908C0 18.7429 2.72352 16.0213 6.07105 16.0213H50.8872V8.96225C50.8872 8.32427 51.4042 7.80761 52.0426 7.80761H57.1453V1.86733C57.1453 1.22897 57.6627 0.711548 58.3007 0.711548H64.5626C65.2006 0.711548 65.718 1.22896 65.718 1.86694V16.0213H70.2497C73.5965 16.0213 76.3211 18.744 76.3211 22.0908V60.5407C76.3211 63.8882 73.5953 66.6099 70.2482 66.6099H47.2214ZM38.3633 46.0681V28.9125C38.3633 28.2745 38.8804 27.7575 39.5184 27.7575H44.6253V25.0581C44.6253 24.4205 45.1423 23.9035 45.7803 23.9035H50.8872V18.3317H6.07105C3.99836 18.3317 2.31193 20.0181 2.31193 22.0908V37.5222C2.5833 37.4308 2.85618 37.3457 3.13095 37.266V30.4938C3.13095 29.0372 4.31659 27.8512 5.7736 27.8512H11.8757C13.333 27.8512 14.5164 29.0372 14.5164 30.4938V37.2656C15.9541 37.6821 17.3412 38.2562 18.652 38.9789L23.4399 34.1914C24.4702 33.1611 26.1471 33.1611 27.1771 34.1914L31.4925 38.5068C32.5232 39.5375 32.5232 41.2133 31.4925 42.2444L26.705 47.0323C27.4272 48.3427 28.0025 49.7301 28.4202 51.1679H35.19C36.6474 51.1679 37.8308 52.3535 37.8308 53.8101V59.9126C37.8308 61.3684 36.6463 62.5552 35.19 62.5552H28.4182C28.2474 63.1444 28.0494 63.7257 27.8256 64.2976H70.2497C72.322 64.2976 74.0088 62.613 74.0088 60.5407V22.0908C74.0088 20.0181 72.3224 18.3317 70.2497 18.3317H65.718V46.0681H67.9287V20.093C67.9287 19.455 68.4457 18.9376 69.0837 18.9376C69.7217 18.9376 70.2391 19.455 70.2391 20.093V47.2232C70.2391 47.8611 69.7217 48.3786 69.0837 48.3786H34.9992C34.3612 48.3786 33.8442 47.8611 33.8442 47.2232C33.8442 46.5848 34.3612 46.0681 34.9992 46.0681H38.3633ZM69.0837 56.2101H40.927C40.289 56.2101 39.7716 55.6935 39.7716 55.0555C39.7716 54.4175 40.289 53.8997 40.927 53.8997H69.0837C69.7217 53.8997 70.2376 54.4167 70.2391 55.0543C70.2403 55.6935 69.7221 56.2101 69.0837 56.2101ZM62.6604 60.8363H47.3522C46.7142 60.8363 46.1972 60.3192 46.1972 59.6812C46.1972 59.0429 46.7142 58.5258 47.3522 58.5258H62.6604C63.2984 58.5258 63.8154 59.0429 63.8154 59.6812C63.8154 60.3192 63.2984 60.8363 62.6604 60.8363ZM40.6757 46.0681H44.6253V30.0702H40.6757V46.0681ZM53.1957 46.0681H57.1453V10.1195H53.1976L53.1957 46.0681ZM46.9376 46.0681H50.8853V26.215H46.9376V46.0681ZM63.4076 46.0681V3.02385H59.4576V46.0681H63.4076ZM47.1337 76.3924H29.1851C28.7535 76.3924 28.4013 76.7447 28.4013 77.1763C28.4013 77.6087 28.7527 77.9602 29.1851 77.9602H47.1337C47.5654 77.9602 47.9176 77.6075 47.9176 77.1763C47.9176 76.7447 47.5657 76.3924 47.1337 76.3924ZM44.6827 66.6099H31.638C32.5697 68.96 32.7405 71.6567 31.9967 74.0797H44.3221C43.5783 71.6563 43.7499 68.96 44.6827 66.6099ZM2.31193 47.213C4.22967 45.9207 6.50305 45.2178 8.82368 45.2178C15.2425 45.2178 20.4646 50.4392 20.4646 56.8587C20.4646 59.583 19.5054 62.2143 17.7751 64.2976H25.316C25.7771 63.2771 26.1422 62.2128 26.4056 61.1243C26.5315 60.6053 26.9945 60.2395 27.5289 60.2395H35.1881C35.3711 60.2395 35.5188 60.0913 35.5188 59.9084V53.8063C35.5188 53.6234 35.3711 53.4764 35.1881 53.4764H27.5308C26.9968 53.4764 26.5315 53.1105 26.4061 52.5912C25.9661 50.7725 25.2469 49.0392 24.2706 47.4424C23.9921 46.9873 24.0616 46.4 24.4388 46.0228L29.8564 40.6075C29.9849 40.479 29.9849 40.2677 29.8564 40.1392L25.5409 35.8237C25.4116 35.6952 25.2019 35.6952 25.073 35.8237L19.6554 41.2413C19.2782 41.6185 18.6916 41.6896 18.2358 41.4118C16.639 40.4363 14.9061 39.7167 13.0874 39.276C12.5684 39.1501 12.2041 38.6875 12.2041 38.153V30.4935C12.2041 30.3109 12.0567 30.1635 11.8738 30.1635H5.7736C5.59067 30.1635 5.44326 30.3109 5.44326 30.4938V38.153C5.44326 38.6863 5.07777 39.1501 4.55998 39.2767C3.79689 39.4623 3.04478 39.6981 2.31193 39.9816V47.213ZM14.4574 64.2976C16.78 62.5355 18.1561 59.7803 18.1561 56.8606C18.1561 51.7159 13.9703 47.5297 8.82557 47.5297C6.39911 47.5297 4.04787 48.4908 2.31193 50.1806V60.5407C2.31193 62.613 3.99874 64.2976 6.07105 64.2976H14.4574Z" fill="#0072BA"/>
<path fill-rule="evenodd" clip-rule="evenodd" d="M27.8257 64.2976H25.3161C25.7772 63.2771 26.1423 62.2128 26.4057 61.1243C26.5316 60.6053 26.9946 60.2395 27.529 60.2395H35.1882C35.3711 60.2395 35.5189 60.0913 35.5189 59.9084V53.8063C35.5189 53.6234 35.3711 53.4764 35.1882 53.4764H27.5309C26.9969 53.4764 26.5316 53.1105 26.4061 52.5912C25.9662 50.7725 25.247 49.0392 24.2707 47.4424C23.9921 46.9873 24.0617 46.4 24.4389 46.0228L29.8565 40.6075C29.985 40.479 29.985 40.2677 29.8565 40.1392L25.541 35.8237C25.4117 35.6952 25.202 35.6952 25.0731 35.8237L19.6555 41.2413C19.2783 41.6185 18.6917 41.6896 18.2359 41.4118C16.639 40.4363 14.9061 39.7167 13.0874 39.276C12.5685 39.1501 12.2042 38.6875 12.2042 38.153V30.4935C12.2042 30.3109 12.0568 30.1635 11.8738 30.1635H5.77368C5.59075 30.1635 5.44334 30.3109 5.44334 30.4938V38.153C5.44334 38.6863 5.07785 39.1501 4.56006 39.2767C3.79697 39.4623 3.04486 39.6981 2.31201 39.9816V37.5222C2.58338 37.4308 2.85626 37.3458 3.13103 37.266V30.4938C3.13103 29.0372 4.31667 27.8512 5.77368 27.8512H11.8757C13.3331 27.8512 14.5165 29.0372 14.5165 30.4938V37.2656C15.9542 37.6821 17.3413 38.2562 18.652 38.9789L23.4399 34.1914C24.4702 33.1611 26.1472 33.1611 27.1771 34.1914L31.4926 38.5068C32.5233 39.5375 32.5233 41.2133 31.4926 42.2444L26.7051 47.0323C27.4273 48.3427 28.0026 49.7301 28.4202 51.1679H35.1901C36.6475 51.1679 37.8309 52.3535 37.8309 53.8101V59.9126C37.8309 61.3684 36.6464 62.5552 35.1901 62.5552H28.4183C28.2475 63.1444 28.0495 63.7257 27.8257 64.2976ZM17.7752 64.2976H14.4575C16.78 62.5355 18.1562 59.7803 18.1562 56.8606C18.1562 51.7159 13.9703 47.5297 8.82564 47.5297C6.39919 47.5297 4.04795 48.4908 2.31201 50.1806V47.213C4.22974 45.9207 6.50313 45.2178 8.82376 45.2178C15.2425 45.2178 20.4647 50.4392 20.4647 56.8587C20.4647 59.583 19.5055 62.2143 17.7752 64.2976Z" fill="#FF952B"/>
</svg>
