<svg width="69" height="81" viewBox="0 0 69 81" fill="none" xmlns="http://www.w3.org/2000/svg">
<path fill-rule="evenodd" clip-rule="evenodd" d="M18.337 7.74305C18.337 9.97421 21.4238 8.5667 23.3582 7.91993C25.9274 7.06208 28.4858 6.02846 30.8889 4.82607C36.8651 1.83853 32.215 2.93839 42.6215 6.89609C47.1766 8.62861 54.4333 10.5206 59.5923 10.863C65.5994 11.2613 65.8506 10.6981 65.9977 13.5201C66.4008 21.2364 66.6156 26.0953 65.5711 34.04C64.0372 45.714 60.7035 55.8188 53.4273 65.0207C53.1837 65.3284 53.0692 65.4136 52.8462 65.6898C51.1115 67.8395 48.7968 69.9485 46.64 71.6713C46.1419 72.0679 45.6671 72.4271 45.1185 72.8058C44.8201 73.0109 44.6649 73.1249 44.3877 73.3251L38.3149 76.7837C37.6822 77.0398 34.9057 78.3686 34.4304 78.3686C33.6469 78.3686 28.0028 75.5401 27.1504 75.0235C24.2345 73.2535 21.903 71.6035 19.4732 69.2633C18.9686 68.7771 18.5828 68.553 18.0603 68.0197C17.5611 67.5107 17.3506 67.1363 16.8129 66.611C15.108 64.9447 12.2637 60.8188 11.1009 58.7293C6.89528 51.1698 4.39932 43.1719 3.30816 34.1778C2.5686 28.0806 2.18605 20.1094 2.84314 13.8125C3.24086 10.0035 2.93755 11.7664 11.217 10.6237C12.8649 10.3958 15.3685 10.3687 15.3685 8.99325C15.3685 6.75884 12.2132 8.22439 8.32663 8.51414C6.27778 8.66769 3.51705 8.42191 2.14971 9.3682C0.303795 10.6466 0.628267 11.9162 0.344489 14.5939C-0.836203 25.7415 1.07807 41.6516 5.16709 51.8508C7.73194 58.2475 9.54206 61.3874 13.5812 66.5616L14.8573 68.0978C15.4444 68.7076 15.7472 68.967 16.2822 69.642L18.451 71.6914C20.2225 73.3979 23.8878 75.8547 26.0809 77.1868C27.8069 78.234 32.5797 80.7115 34.743 80.7115C36.9921 80.7115 44.2422 76.298 46.3062 74.9307C48.2428 73.649 51.653 70.7658 53.2265 68.8824C53.4653 68.5975 53.6661 68.4363 53.926 68.1759C54.8229 67.2741 57.1495 64.1797 57.7757 63.2752C62.7149 56.1487 65.97 46.8333 67.3992 38.2115C68.3916 32.2272 68.8056 27.8436 68.8056 21.4935L68.5592 15.021C68.2201 12.7567 69.021 9.15653 64.5663 8.70129C63.5581 8.59874 62.1935 8.60251 61.2955 8.53523C53.9379 7.97527 48.386 6.54935 41.8184 3.94922C40.8873 3.57971 40.3437 3.22324 39.4755 2.85428C37.3632 1.95791 36.2443 0.884094 34.8759 0.711548H34.113C33.5314 0.783171 32.8775 1.01972 32.0799 1.48581C28.5265 3.56178 23.9051 5.2694 19.9518 6.38932C19.1107 6.62698 18.337 6.72243 18.337 7.74305Z" fill="#0072BA"/>
<path fill-rule="evenodd" clip-rule="evenodd" d="M34.4308 71.0245C32.8768 71.0245 27.4009 67.668 25.8372 66.4933C25.4096 66.1715 25.0379 65.8763 24.6076 65.535C22.8257 64.1259 22.0884 63.4151 20.6342 61.6956C20.4297 61.4547 20.3076 61.375 20.103 61.1341L17.2745 57.243C15.523 54.6364 13.9771 51.146 12.9288 48.1519C12.1436 45.9088 11.4507 43.7276 10.9537 41.2208C9.98791 36.3564 9.27494 31.0053 9.27494 25.0872C9.27494 23.4366 9.44585 22.193 9.43011 20.7106C9.4198 19.7616 9.55112 19.4208 9.58367 18.6769C9.64119 17.3714 9.48709 17.6557 10.0563 16.8055C16.9451 16.8055 25.6489 14.7714 31.7249 11.7556C36.1823 9.54399 32.6109 10.0692 39.7434 12.8999C41.6208 13.6449 43.3104 14.2634 45.4347 14.8652C47.4396 15.4322 49.5807 15.8869 51.7657 16.1896C53.8319 16.4756 56.5075 16.8055 58.8059 16.8055C59.2801 17.5136 59.2492 17.3693 59.2763 18.5228C59.2953 19.3421 59.4408 19.5982 59.4342 20.5527C59.4245 22.149 59.5872 23.2505 59.5872 24.9303C59.5872 30.4659 58.9887 36.4877 57.9296 41.0856C57.3376 43.6575 56.7999 45.7569 55.9747 48.0374C53.6675 54.4146 52.1417 56.8172 47.8916 62.1417C46.4282 63.974 42.5378 67.0451 40.5187 68.2057C39.6425 68.7087 35.3879 71.0245 34.4308 71.0245ZM6.93091 22.5874C6.93091 30.8539 7.03565 35.6596 9.02481 43.6185C9.65965 46.1578 10.3276 48.3607 11.2386 50.6234C12.7079 54.2707 15.294 59.3022 17.9847 62.3147C18.396 62.7754 18.555 63.0234 19.0032 63.4836C19.4497 63.9426 19.6103 64.2584 20.0938 64.7369C22.3879 67.005 25.135 69.2236 27.9712 70.7657C29.1465 71.4049 32.9994 73.5248 34.4308 73.5248C36.4156 73.5248 42.8839 69.7869 44.9371 68.0923C45.4097 67.7033 45.7445 67.4412 46.241 67.0532C48.6854 65.14 52.1678 61.0125 53.6995 58.4178C54.0348 57.8502 54.2931 57.5106 54.5877 56.9625C57.0544 52.3722 58.4879 49.0325 59.8064 43.7433C61.7549 35.9223 61.9307 30.8371 61.9307 22.8994C61.9307 21.2184 61.8558 19.2689 61.667 17.8505C61.5324 16.8386 61.5699 16.4745 61.0886 15.7729C59.7804 13.8657 57.6996 14.3552 54.7538 14.1392C48.5107 13.6813 41.7928 11.513 36.4113 8.57538C33.2398 6.84341 32.7026 9.10772 27.1459 11.0828C24.4394 12.0448 21.9956 12.8576 18.8729 13.4354C17.371 13.7122 15.8252 13.9271 14.3889 14.1077C8.5598 14.8403 6.93091 12.7957 6.93091 22.5874Z" fill="#0072BA"/>
<path fill-rule="evenodd" clip-rule="evenodd" d="M17.868 39.149C17.868 41.3542 18.4758 44.052 19.3765 45.9218C23.9088 55.3331 34.7059 58.4829 43.5253 52.931C44.8351 52.1074 47.4303 49.7775 48.0136 48.4986C48.5074 47.4155 47.1981 45.6955 45.6295 47.6917C44.5579 49.0563 43.5443 50.0199 42.0597 50.9977C33.484 56.6418 20.3678 51.1817 20.3678 38.8371C20.3678 31.3688 26.5827 25.0871 34.7428 25.0871C42.8796 25.0871 49.6073 32.4756 48.3126 41.4687C48.2215 42.1002 48.0245 42.6173 48.0245 43.3683C48.0245 43.9586 49.96 45.1235 50.4651 43.1523C51.3664 39.6352 51.0142 35.5532 49.4846 32.3763C48.7814 30.9162 48.1683 29.8066 47.127 28.6406C45.9225 27.2911 45.4732 26.7604 43.8959 25.6215C33.2615 17.9411 17.868 25.7957 17.868 39.149Z" fill="#FF952B"/>
<path fill-rule="evenodd" clip-rule="evenodd" d="M32.5558 44.9311C31.2801 44.9311 30.7554 44.0026 29.393 42.6244C28.5254 41.7475 26.9307 40.8979 26.9307 39.6185C26.9307 38.8838 27.38 38.5001 28.0691 38.4366C28.7885 38.3699 29.0224 38.868 29.4776 39.2582C30.0029 39.7074 30.2237 39.8556 30.7196 40.3602C32.6871 42.3635 32.7392 41.2284 36.5043 37.3168L38.456 35.2055C39.023 34.5924 39.628 33.3677 40.6806 33.3677C41.7409 33.3677 41.9308 34.1176 41.9308 34.931C41.9308 35.3938 41.1906 35.8745 40.9031 36.2462C39.8152 37.6521 36.355 41.0102 35.0788 42.6103C34.7262 43.0525 33.0251 44.9311 32.5558 44.9311ZM32.2432 38.3678C30.3447 37.097 30.5097 36.0248 27.8683 36.0248C26.0642 36.0248 24.4309 37.7677 24.4309 39.6185C24.4309 42.0325 26.3317 42.9951 27.5948 44.2669C28.6968 45.3743 30.2318 47.4307 32.2432 47.4307C34.2064 47.4307 35.0821 46.0672 36.1109 45.0482L42.1294 38.5669C43.245 37.4074 44.4305 36.1393 44.4305 34.6179C44.4305 31.6173 40.7788 29.3839 37.9812 32.0747L32.2432 38.3678Z" fill="#FF952B"/>
</svg>
