<svg width="6" height="10" viewBox="0 0 6 10" fill="none" xmlns="http://www.w3.org/2000/svg">
<path d="M1.43759 0.450049L5.65009 4.65005C5.70009 4.70005 5.73559 4.75422 5.75659 4.81255C5.77759 4.87088 5.78792 4.93338 5.78759 5.00005C5.78759 5.06672 5.77709 5.12922 5.75609 5.18755C5.73509 5.24588 5.69976 5.30005 5.65009 5.35005L1.43759 9.56255C1.32092 9.67922 1.17509 9.73755 1.00009 9.73755C0.825089 9.73755 0.675089 9.67505 0.550089 9.55005C0.425089 9.42505 0.362589 9.27922 0.362589 9.11255C0.362589 8.94588 0.425089 8.80005 0.550089 8.67505L4.22509 5.00005L0.55009 1.32505C0.433423 1.20838 0.37509 1.06455 0.37509 0.893549C0.37509 0.72255 0.43759 0.574716 0.56259 0.450049C0.68759 0.325049 0.833423 0.262549 1.00009 0.262549C1.16676 0.262549 1.31259 0.325049 1.43759 0.450049Z" fill="#292929"/>
</svg>
