<svg width="241" height="57" viewBox="0 0 241 57" fill="none" xmlns="http://www.w3.org/2000/svg">
<path fill-rule="evenodd" clip-rule="evenodd" d="M5.6909 33.1956C7.11783 38.3789 10.3794 42.6961 14.6737 45.5467C15.9838 46.3436 17.4978 46.6848 19.038 46.6848C23.6179 46.6848 27.3306 43.0311 27.3306 38.5245C27.3306 34.0174 23.6179 30.3642 19.038 30.3642C19.0228 30.3642 19.0534 30.3642 19.038 30.3642C17.4305 30.3642 16.1271 29.0818 16.1271 27.5C16.1271 25.9179 17.4305 24.6361 19.038 24.6361C18.9928 24.6361 19.0832 24.6361 19.038 24.6361C23.6179 24.6361 27.3306 20.982 27.3306 16.4755C27.3306 11.9687 23.6179 8.31516 19.038 8.31516C17.3525 8.31516 15.6646 8.78034 14.2784 9.7226C10.1961 12.5613 7.09826 16.7489 5.70715 21.7466C5.34746 22.9726 4.2072 23.8161 2.91091 23.8161C1.30344 23.8161 0 22.5332 0 20.9513C0 20.736 0.0308339 20.5234 0.0796204 20.3134C3.37781 8.32494 14.4325 0 27.0541 0C42.488 0 55 12.3121 55 27.5C55 42.6877 42.488 55 27.0541 55C14.4422 55 3.38717 46.6886 0.0801588 34.7124C0.0269622 34.4932 0 34.2694 0 34.044C0 32.4622 1.30344 31.1795 2.91091 31.1795C4.18625 31.1795 5.31301 31.9968 5.6909 33.1956ZM28.0059 49.2493C39.783 48.7587 49.1779 39.2099 49.1779 27.5C49.1779 15.7903 39.783 6.24159 28.0065 5.75093C31.2647 8.38894 33.1525 12.3234 33.1525 16.4755C33.1525 20.7962 31.1092 24.872 27.6239 27.5003C31.1089 30.1285 33.1525 34.2035 33.1525 38.5245C33.1525 42.6776 31.2635 46.6119 28.0059 49.2493Z" fill="white"/>
<path d="M77.6001 20.264C76.3041 20.264 75.1521 20 74.1441 19.472C73.1521 18.944 72.3841 18.264 71.8401 17.432L73.4481 15.44C73.9761 16.048 74.6081 16.544 75.3441 16.928C76.0801 17.312 76.7841 17.504 77.4561 17.504C78.3681 17.504 79.1121 17.288 79.6881 16.856C80.2641 16.408 80.5521 15.792 80.5521 15.008C80.5521 14.32 80.2881 13.784 79.7601 13.4C79.2481 13 78.5201 12.8 77.5761 12.8H75.8481V10.04H77.4801C78.1521 10.04 78.7201 9.84004 79.1841 9.44004C79.6641 9.02404 79.9041 8.48804 79.9041 7.83204C79.9041 7.16004 79.6801 6.64004 79.2321 6.27204C78.8001 5.88804 78.2081 5.69604 77.4561 5.69604C76.0961 5.69604 74.9601 6.30404 74.0481 7.52003L72.3441 5.55203C72.9201 4.76803 73.6961 4.13603 74.6721 3.65603C75.6481 3.17603 76.6881 2.93604 77.7921 2.93604C79.3281 2.93604 80.5521 3.34404 81.4641 4.16004C82.3761 4.97604 82.8321 6.10403 82.8321 7.54403C82.8321 8.24803 82.6321 8.93604 82.2321 9.60804C81.8481 10.28 81.2961 10.824 80.5761 11.24V11.312C81.5361 11.552 82.2561 12.024 82.7361 12.728C83.2321 13.416 83.4801 14.272 83.4801 15.296C83.4801 16.784 82.8961 17.984 81.7281 18.896C80.5761 19.808 79.2001 20.264 77.6001 20.264Z" fill="white"/>
<path d="M88.1832 20H85.2072L92.3111 3.15204H94.9032L102.007 20H98.8632L97.1112 15.704H89.9352L88.1832 20ZM95.9832 12.944L93.5352 6.96803L91.0632 12.944H95.9832Z" fill="white"/>
<path d="M104.523 19.976V3.24804C106.251 3.16804 107.867 3.12804 109.371 3.12804C111.227 3.12804 112.611 3.49604 113.523 4.23204C114.435 4.96804 114.891 5.98404 114.891 7.28004C114.891 9.08804 114.091 10.36 112.491 11.096V11.144C113.403 11.384 114.123 11.84 114.651 12.512C115.179 13.168 115.443 14.016 115.443 15.056C115.443 16.688 114.883 17.936 113.763 18.8C112.643 19.664 111.123 20.096 109.203 20.096C107.283 20.096 105.723 20.056 104.523 19.976ZM109.563 12.776H107.475V17.216C108.227 17.296 108.875 17.336 109.419 17.336C111.467 17.336 112.491 16.528 112.491 14.912C112.491 14.208 112.235 13.68 111.723 13.328C111.211 12.96 110.491 12.776 109.563 12.776ZM109.323 5.88804C108.619 5.88804 108.003 5.91204 107.475 5.96003V10.208H109.467C110.219 10.208 110.819 10.016 111.267 9.63204C111.731 9.24804 111.963 8.69603 111.963 7.97603C111.963 7.30403 111.731 6.79204 111.267 6.44004C110.803 6.07204 110.155 5.88804 109.323 5.88804Z" fill="white"/>
<path d="M118.088 11.6C118.088 9.15203 118.904 7.09604 120.536 5.43203C122.2 3.76803 124.296 2.93604 126.824 2.93604C129.352 2.93604 131.44 3.73604 133.088 5.33604C134.752 6.95203 135.584 9.04003 135.584 11.6C135.584 14.112 134.752 16.184 133.088 17.816C131.424 19.448 129.336 20.264 126.824 20.264C124.296 20.264 122.208 19.464 120.56 17.864C118.912 16.264 118.088 14.176 118.088 11.6ZM121.208 11.6C121.208 13.296 121.744 14.704 122.816 15.824C123.888 16.944 125.224 17.504 126.824 17.504C128.552 17.504 129.92 16.944 130.928 15.824C131.952 14.704 132.464 13.296 132.464 11.6C132.464 9.88803 131.92 8.47204 130.832 7.35204C129.744 6.24804 128.408 5.69604 126.824 5.69604C125.208 5.69604 123.864 6.24804 122.792 7.35204C121.736 8.45604 121.208 9.87203 121.208 11.6Z" fill="white"/>
<path d="M139.087 23H136.327V17.24H138.127C138.607 16.68 139.127 15.44 139.687 13.52C140.263 11.552 140.607 9.23204 140.719 6.56004L140.887 3.20003H151.303V17.24H153.583V23H150.823V20H139.087V23ZM143.743 5.96003L143.479 8.88803C143.335 10.904 143.039 12.672 142.591 14.192C142.127 15.776 141.719 16.792 141.367 17.24H148.375V5.96003H143.743Z" fill="white"/>
<path d="M161.594 19.976V3.24804C163.322 3.16804 164.938 3.12804 166.442 3.12804C168.298 3.12804 169.682 3.49604 170.594 4.23204C171.506 4.96804 171.962 5.98404 171.962 7.28004C171.962 9.08804 171.162 10.36 169.562 11.096V11.144C170.474 11.384 171.194 11.84 171.722 12.512C172.25 13.168 172.514 14.016 172.514 15.056C172.514 16.688 171.954 17.936 170.834 18.8C169.714 19.664 168.194 20.096 166.274 20.096C164.354 20.096 162.794 20.056 161.594 19.976ZM166.634 12.776H164.546V17.216C165.298 17.296 165.946 17.336 166.49 17.336C168.538 17.336 169.562 16.528 169.562 14.912C169.562 14.208 169.306 13.68 168.794 13.328C168.282 12.96 167.562 12.776 166.634 12.776ZM166.394 5.88804C165.69 5.88804 165.074 5.91204 164.546 5.96003V10.208H166.538C167.29 10.208 167.89 10.016 168.338 9.63204C168.802 9.24804 169.034 8.69603 169.034 7.97603C169.034 7.30403 168.802 6.79204 168.338 6.44004C167.874 6.07204 167.226 5.88804 166.394 5.88804Z" fill="white"/>
<path d="M186.126 12.824H178.566V10.064H186.054C185.766 8.68804 185.086 7.61604 184.014 6.84803C182.942 6.08004 181.606 5.69604 180.006 5.69604C178.534 5.69604 177.222 6.12804 176.07 6.99203L174.918 4.78404C176.374 3.55204 178.302 2.93604 180.702 2.93604C183.198 2.93604 185.23 3.72803 186.798 5.31203C188.366 6.91203 189.15 9.00004 189.15 11.576C189.15 14.216 188.358 16.328 186.774 17.912C185.174 19.48 183.038 20.264 180.366 20.264C179.246 20.264 178.182 20.104 177.174 19.784C176.166 19.464 175.35 19.04 174.726 18.512L175.998 16.04C177.262 17.016 178.702 17.504 180.318 17.504C181.854 17.504 183.142 17.096 184.182 16.28C185.238 15.448 185.886 14.296 186.126 12.824Z" fill="white"/>
<path d="M204.832 20H201.904V5.96003H197.008L196.672 9.12804C196.48 11.048 196.232 12.688 195.928 14.048C195.624 15.408 195.288 16.496 194.92 17.312C194.552 18.128 194.112 18.752 193.6 19.184C193.104 19.616 192.584 19.888 192.04 20C191.512 20.096 190.896 20.096 190.192 20L190.264 17.072C190.616 17.12 190.904 17.104 191.128 17.024C191.352 16.944 191.616 16.72 191.92 16.352C192.256 15.936 192.528 15.384 192.736 14.696C193.312 12.984 193.736 10.272 194.008 6.56004L194.248 3.20003H204.832V20Z" fill="white"/>
<path d="M210.293 20H207.317L214.421 3.15204H217.013L224.117 20H220.973L219.221 15.704H212.045L210.293 20ZM218.093 12.944L215.645 6.96803L213.173 12.944H218.093Z" fill="white"/>
<path d="M240.193 20H237.265V12.824H229.585V20H226.633V3.20003H229.585V10.064H237.265V3.20003H240.193V20Z" fill="white"/>
<path d="M72.47 37.986V28.214C73.7673 28.1766 74.6633 28.158 75.158 28.158C76.222 28.158 77.0107 28.3726 77.524 28.802C78.0467 29.222 78.308 29.8146 78.308 30.58C78.308 31.1493 78.1587 31.6253 77.86 32.008C77.5613 32.3906 77.1507 32.6706 76.628 32.848V32.876C77.2627 32.9786 77.7573 33.2306 78.112 33.632C78.476 34.0333 78.658 34.556 78.658 35.2C78.658 36.1333 78.3407 36.8426 77.706 37.328C77.0713 37.804 76.2033 38.042 75.102 38.042C74.0287 38.042 73.1513 38.0233 72.47 37.986ZM75.242 33.534H73.66V36.866C74.0427 36.9033 74.5467 36.922 75.172 36.922C75.9093 36.922 76.474 36.7726 76.866 36.474C77.2673 36.166 77.468 35.718 77.468 35.13C77.468 34.6166 77.272 34.2246 76.88 33.954C76.4973 33.674 75.9513 33.534 75.242 33.534ZM75.13 29.278C74.85 29.278 74.36 29.292 73.66 29.32V32.484H75.228C75.7787 32.484 76.2313 32.3393 76.586 32.05C76.9407 31.7513 77.118 31.35 77.118 30.846C77.118 29.8006 76.4553 29.278 75.13 29.278Z" fill="white"/>
<path d="M82.7346 38.14C82.2586 38.14 81.7546 38.0606 81.2226 37.902C80.7093 37.734 80.3453 37.5286 80.1306 37.286L80.7046 36.446C80.9566 36.6513 81.2553 36.8193 81.6006 36.95C81.9553 37.0713 82.2773 37.132 82.5666 37.132C83.0519 37.132 83.4486 37.0386 83.7566 36.852C84.0646 36.656 84.2186 36.404 84.2186 36.096C84.2186 35.8346 84.1066 35.634 83.8826 35.494C83.6679 35.354 83.3693 35.284 82.9866 35.284H81.9226V34.374H82.9166C83.2339 34.374 83.4953 34.29 83.7006 34.122C83.9059 33.9446 84.0086 33.73 84.0086 33.478C84.0086 33.198 83.8873 32.9786 83.6446 32.82C83.4019 32.652 83.0753 32.568 82.6646 32.568C82.0019 32.568 81.3719 32.8013 80.7746 33.268L80.3406 32.4C80.5926 32.1386 80.9426 31.9333 81.3906 31.784C81.8479 31.6346 82.3286 31.56 82.8326 31.56C83.5793 31.56 84.1579 31.7093 84.5686 32.008C84.9886 32.3066 85.1986 32.722 85.1986 33.254C85.1986 33.982 84.8299 34.4766 84.0926 34.738V34.766C84.5033 34.8126 84.8253 34.976 85.0586 35.256C85.2919 35.5266 85.4086 35.858 85.4086 36.25C85.4086 36.8286 85.1613 37.2906 84.6666 37.636C84.1813 37.972 83.5373 38.14 82.7346 38.14Z" fill="white"/>
<path d="M88.2354 40.8H87.1154V31.7H88.2354V32.442C88.4594 32.1806 88.7674 31.9706 89.1594 31.812C89.5514 31.644 89.9574 31.56 90.3774 31.56C91.2734 31.56 91.9781 31.8586 92.4914 32.456C93.0234 33.044 93.2894 33.8093 93.2894 34.752C93.2894 35.7133 92.9861 36.5206 92.3794 37.174C91.7821 37.818 90.9934 38.14 90.0134 38.14C89.2574 38.14 88.6647 37.9953 88.2354 37.706V40.8ZM90.0554 32.61C89.3087 32.61 88.7021 32.8993 88.2354 33.478V36.6C88.7301 36.9266 89.2901 37.09 89.9154 37.09C90.5781 37.09 91.1054 36.88 91.4974 36.46C91.8987 36.0306 92.0994 35.4753 92.0994 34.794C92.0994 34.1313 91.9174 33.604 91.5534 33.212C91.1894 32.8106 90.6901 32.61 90.0554 32.61Z" fill="white"/>
<path d="M96.9247 38H94.8947V31.7H96.0147V33.59H97.0507C97.9094 33.59 98.5394 33.786 98.9407 34.178C99.342 34.5606 99.5427 35.088 99.5427 35.76C99.5427 36.3946 99.3327 36.9266 98.9127 37.356C98.5114 37.7853 97.8487 38 96.9247 38ZM101.867 38H100.747V31.7H101.867V38ZM96.8407 34.64H96.0147V36.95H96.8267C97.3587 36.95 97.746 36.8566 97.9887 36.67C98.2314 36.4833 98.3527 36.194 98.3527 35.802C98.3527 35.0273 97.8487 34.64 96.8407 34.64Z" fill="white"/>
<path d="M103.877 38V31.7C103.924 31.7 103.989 31.7 104.073 31.7C104.157 31.6906 104.278 31.686 104.437 31.686C104.596 31.6766 104.74 31.672 104.871 31.672C105.562 31.6533 105.991 31.644 106.159 31.644C107.97 31.644 108.875 32.1853 108.875 33.268C108.875 33.6413 108.758 33.9633 108.525 34.234C108.292 34.4953 107.988 34.654 107.615 34.71V34.738C108.595 34.9153 109.085 35.41 109.085 36.222C109.085 37.4446 108.119 38.056 106.187 38.056C106.094 38.056 105.683 38.0466 104.955 38.028C104.815 38.028 104.661 38.0233 104.493 38.014C104.325 38.014 104.194 38.0093 104.101 38C104.008 38 103.933 38 103.877 38ZM106.341 35.172H104.997V37.104C105.669 37.132 106.098 37.146 106.285 37.146C107.358 37.146 107.895 36.81 107.895 36.138C107.895 35.494 107.377 35.172 106.341 35.172ZM106.243 32.554C105.972 32.554 105.557 32.568 104.997 32.596V34.472H106.411C106.794 34.472 107.102 34.3833 107.335 34.206C107.568 34.0286 107.685 33.7906 107.685 33.492C107.685 32.8666 107.204 32.554 106.243 32.554Z" fill="white"/>
<path d="M111.299 37.216C110.683 36.5813 110.375 35.7926 110.375 34.85C110.375 33.898 110.683 33.114 111.299 32.498C111.924 31.8726 112.736 31.56 113.735 31.56C114.734 31.56 115.541 31.8726 116.157 32.498C116.782 33.114 117.095 33.898 117.095 34.85C117.095 35.802 116.782 36.5906 116.157 37.216C115.541 37.832 114.734 38.14 113.735 38.14C112.746 38.14 111.934 37.832 111.299 37.216ZM112.181 33.24C111.77 33.6506 111.565 34.1873 111.565 34.85C111.565 35.5126 111.766 36.0493 112.167 36.46C112.578 36.88 113.1 37.09 113.735 37.09C114.37 37.09 114.888 36.8846 115.289 36.474C115.7 36.054 115.905 35.5126 115.905 34.85C115.905 34.206 115.7 33.6693 115.289 33.24C114.888 32.82 114.37 32.61 113.735 32.61C113.1 32.61 112.582 32.82 112.181 33.24Z" fill="white"/>
<path d="M120.797 38.14C120.321 38.14 119.817 38.0606 119.285 37.902C118.772 37.734 118.408 37.5286 118.193 37.286L118.767 36.446C119.019 36.6513 119.318 36.8193 119.663 36.95C120.018 37.0713 120.34 37.132 120.629 37.132C121.114 37.132 121.511 37.0386 121.819 36.852C122.127 36.656 122.281 36.404 122.281 36.096C122.281 35.8346 122.169 35.634 121.945 35.494C121.73 35.354 121.432 35.284 121.049 35.284H119.985V34.374H120.979C121.296 34.374 121.558 34.29 121.763 34.122C121.968 33.9446 122.071 33.73 122.071 33.478C122.071 33.198 121.95 32.9786 121.707 32.82C121.464 32.652 121.138 32.568 120.727 32.568C120.064 32.568 119.434 32.8013 118.837 33.268L118.403 32.4C118.655 32.1386 119.005 31.9333 119.453 31.784C119.91 31.6346 120.391 31.56 120.895 31.56C121.642 31.56 122.22 31.7093 122.631 32.008C123.051 32.3066 123.261 32.722 123.261 33.254C123.261 33.982 122.892 34.4766 122.155 34.738V34.766C122.566 34.8126 122.888 34.976 123.121 35.256C123.354 35.5266 123.471 35.858 123.471 36.25C123.471 36.8286 123.224 37.2906 122.729 37.636C122.244 37.972 121.6 38.14 120.797 38.14Z" fill="white"/>
<path d="M125.514 33.03L125.22 32.134C125.845 31.7513 126.545 31.56 127.32 31.56C128.169 31.56 128.785 31.77 129.168 32.19C129.551 32.61 129.742 33.2586 129.742 34.136V38H128.678V37.188C128.183 37.7946 127.511 38.098 126.662 38.098C126.083 38.098 125.617 37.9253 125.262 37.58C124.907 37.2253 124.73 36.7493 124.73 36.152C124.73 35.536 124.949 35.0506 125.388 34.696C125.827 34.332 126.401 34.15 127.11 34.15C127.773 34.15 128.295 34.2853 128.678 34.556C128.678 33.8466 128.58 33.338 128.384 33.03C128.188 32.722 127.81 32.568 127.25 32.568C126.681 32.568 126.102 32.722 125.514 33.03ZM127.054 37.09C127.679 37.09 128.221 36.8193 128.678 36.278V35.48C128.286 35.2 127.815 35.06 127.264 35.06C126.881 35.06 126.559 35.1533 126.298 35.34C126.046 35.5173 125.92 35.7693 125.92 36.096C125.92 36.404 126.018 36.6466 126.214 36.824C126.419 37.0013 126.699 37.09 127.054 37.09Z" fill="white"/>
<path d="M139.597 38H131.617V31.7H132.737V36.95H135.047V31.7H136.167V36.95H138.477V31.7H139.597V36.95H140.647V39.54H139.597V38Z" fill="white"/>
<path d="M146.631 33.31L142.991 38H141.871V31.7H142.991V36.39L146.631 31.7H147.751V38H146.631V33.31Z" fill="white"/>
<path d="M157.767 38H149.787V31.7H150.907V36.95H153.217V31.7H154.337V36.95H156.647V31.7H157.767V36.95H158.817V39.54H157.767V38Z" fill="white"/>
<path d="M165.011 36.432L165.361 37.314C164.755 37.8646 163.966 38.14 162.995 38.14C161.969 38.14 161.152 37.8413 160.545 37.244C159.929 36.6466 159.621 35.8486 159.621 34.85C159.621 33.9073 159.911 33.1233 160.489 32.498C161.059 31.8726 161.852 31.56 162.869 31.56C163.709 31.56 164.405 31.8306 164.955 32.372C165.515 32.904 165.795 33.5946 165.795 34.444C165.795 34.7146 165.772 34.9666 165.725 35.2H160.881C160.928 35.788 161.147 36.25 161.539 36.586C161.941 36.922 162.454 37.09 163.079 37.09C163.901 37.09 164.545 36.8706 165.011 36.432ZM162.813 32.61C162.263 32.61 161.805 32.764 161.441 33.072C161.087 33.38 160.877 33.786 160.811 34.29H164.633C164.605 33.7673 164.428 33.3566 164.101 33.058C163.784 32.7593 163.355 32.61 162.813 32.61Z" fill="white"/>
<path d="M173.055 38H171.935V35.34H168.435V38H167.315V31.7H168.435V34.29H171.935V31.7H173.055V38Z" fill="white"/>
<path d="M180.82 38H179.7V35.34H176.2V38H175.08V31.7H176.2V34.29H179.7V31.7H180.82V38Z" fill="white"/>
<path d="M183.35 37.216C182.734 36.5813 182.426 35.7926 182.426 34.85C182.426 33.898 182.734 33.114 183.35 32.498C183.975 31.8726 184.787 31.56 185.786 31.56C186.785 31.56 187.592 31.8726 188.208 32.498C188.833 33.114 189.146 33.898 189.146 34.85C189.146 35.802 188.833 36.5906 188.208 37.216C187.592 37.832 186.785 38.14 185.786 38.14C184.797 38.14 183.985 37.832 183.35 37.216ZM184.232 33.24C183.821 33.6506 183.616 34.1873 183.616 34.85C183.616 35.5126 183.817 36.0493 184.218 36.46C184.629 36.88 185.151 37.09 185.786 37.09C186.421 37.09 186.939 36.8846 187.34 36.474C187.751 36.054 187.956 35.5126 187.956 34.85C187.956 34.206 187.751 33.6693 187.34 33.24C186.939 32.82 186.421 32.61 185.786 32.61C185.151 32.61 184.633 32.82 184.232 33.24Z" fill="white"/>
<path d="M195.732 36.432L196.082 37.314C195.475 37.8646 194.687 38.14 193.716 38.14C192.689 38.14 191.873 37.8413 191.266 37.244C190.65 36.6466 190.342 35.8486 190.342 34.85C190.342 33.9073 190.631 33.1233 191.21 32.498C191.779 31.8726 192.573 31.56 193.59 31.56C194.43 31.56 195.125 31.8306 195.676 32.372C196.236 32.904 196.516 33.5946 196.516 34.444C196.516 34.7146 196.493 34.9666 196.446 35.2H191.602C191.649 35.788 191.868 36.25 192.26 36.586C192.661 36.922 193.175 37.09 193.8 37.09C194.621 37.09 195.265 36.8706 195.732 36.432ZM193.534 32.61C192.983 32.61 192.526 32.764 192.162 33.072C191.807 33.38 191.597 33.786 191.532 34.29H195.354C195.326 33.7673 195.149 33.3566 194.822 33.058C194.505 32.7593 194.075 32.61 193.534 32.61Z" fill="white"/>
<path d="M76.096 51.256H72.988V50.346H76.082C75.998 49.786 75.76 49.3566 75.368 49.058C74.9853 48.7593 74.4953 48.61 73.898 48.61C73.1233 48.61 72.4793 48.8386 71.966 49.296L71.49 48.456C71.7607 48.1853 72.12 47.9706 72.568 47.812C73.016 47.644 73.4547 47.56 73.884 47.56C74.892 47.56 75.6993 47.8586 76.306 48.456C76.9313 49.0533 77.244 49.8513 77.244 50.85C77.244 51.774 76.9407 52.5533 76.334 53.188C75.7273 53.8226 74.9667 54.14 74.052 54.14C72.9133 54.14 72.0687 53.874 71.518 53.342L72.05 52.516C72.4793 52.8986 73.1233 53.09 73.982 53.09C74.57 53.09 75.0507 52.9313 75.424 52.614C75.7973 52.2873 76.0213 51.8346 76.096 51.256Z" fill="white"/>
<path d="M84.0435 54H82.9235V48.82H80.7115L80.6415 49.884C80.5668 50.752 80.4548 51.4753 80.3055 52.054C80.1655 52.6233 79.9788 53.0526 79.7455 53.342C79.5215 53.622 79.2835 53.818 79.0315 53.93C78.7795 54.0326 78.4715 54.084 78.1075 54.084L78.0235 52.992C78.1262 53.0013 78.2335 52.9873 78.3455 52.95C78.4575 52.9033 78.5788 52.81 78.7095 52.67C78.8495 52.53 78.9708 52.3433 79.0735 52.11C79.1855 51.8766 79.2835 51.55 79.3675 51.13C79.4608 50.7006 79.5215 50.2106 79.5495 49.66L79.6615 47.7H84.0435V54Z" fill="white"/>
<path d="M91.0327 52.432L91.3827 53.314C90.776 53.8646 89.9873 54.14 89.0167 54.14C87.99 54.14 87.1733 53.8413 86.5667 53.244C85.9507 52.6466 85.6427 51.8486 85.6427 50.85C85.6427 49.9073 85.932 49.1233 86.5107 48.498C87.08 47.8726 87.8733 47.56 88.8907 47.56C89.7307 47.56 90.426 47.8306 90.9767 48.372C91.5367 48.904 91.8167 49.5946 91.8167 50.444C91.8167 50.7146 91.7933 50.9666 91.7467 51.2H86.9027C86.9493 51.788 87.1687 52.25 87.5607 52.586C87.962 52.922 88.4753 53.09 89.1007 53.09C89.922 53.09 90.566 52.8706 91.0327 52.432ZM88.8347 48.61C88.284 48.61 87.8267 48.764 87.4627 49.072C87.108 49.38 86.898 49.786 86.8327 50.29H90.6547C90.6267 49.7673 90.4493 49.3566 90.1227 49.058C89.8053 48.7593 89.376 48.61 88.8347 48.61Z" fill="white"/>
<path d="M97.3821 47.7H98.8521L96.0941 50.71L99.1181 54H97.5641L94.7221 50.78L97.3821 47.7ZM94.4561 54H93.3361V47.7H94.4561V54Z" fill="white"/>
<path d="M101.821 48.82H99.5108V47.7H105.251V48.82H102.941V54H101.821V48.82Z" fill="white"/>
<path d="M107.595 56.8H106.475V47.7H107.595V48.442C107.819 48.1806 108.127 47.9706 108.519 47.812C108.911 47.644 109.317 47.56 109.737 47.56C110.633 47.56 111.337 47.8586 111.851 48.456C112.383 49.044 112.649 49.8093 112.649 50.752C112.649 51.7133 112.345 52.5206 111.739 53.174C111.141 53.818 110.353 54.14 109.373 54.14C108.617 54.14 108.024 53.9953 107.595 53.706V56.8ZM109.415 48.61C108.668 48.61 108.061 48.8993 107.595 49.478V52.6C108.089 52.9266 108.649 53.09 109.275 53.09C109.937 53.09 110.465 52.88 110.857 52.46C111.258 52.0306 111.459 51.4753 111.459 50.794C111.459 50.1313 111.277 49.604 110.913 49.212C110.549 48.8106 110.049 48.61 109.415 48.61Z" fill="white"/>
<path d="M114.758 53.216C114.142 52.5813 113.834 51.7926 113.834 50.85C113.834 49.898 114.142 49.114 114.758 48.498C115.383 47.8726 116.195 47.56 117.194 47.56C118.193 47.56 119 47.8726 119.616 48.498C120.241 49.114 120.554 49.898 120.554 50.85C120.554 51.802 120.241 52.5906 119.616 53.216C119 53.832 118.193 54.14 117.194 54.14C116.205 54.14 115.393 53.832 114.758 53.216ZM115.64 49.24C115.229 49.6506 115.024 50.1873 115.024 50.85C115.024 51.5126 115.225 52.0493 115.626 52.46C116.037 52.88 116.559 53.09 117.194 53.09C117.829 53.09 118.347 52.8846 118.748 52.474C119.159 52.054 119.364 51.5126 119.364 50.85C119.364 50.206 119.159 49.6693 118.748 49.24C118.347 48.82 117.829 48.61 117.194 48.61C116.559 48.61 116.041 48.82 115.64 49.24Z" fill="white"/>
<path d="M122.674 53.216C122.058 52.5813 121.75 51.7926 121.75 50.85C121.75 49.898 122.058 49.114 122.674 48.498C123.299 47.8726 124.111 47.56 125.11 47.56C126.109 47.56 126.916 47.8726 127.532 48.498C128.157 49.114 128.47 49.898 128.47 50.85C128.47 51.802 128.157 52.5906 127.532 53.216C126.916 53.832 126.109 54.14 125.11 54.14C124.121 54.14 123.309 53.832 122.674 53.216ZM123.556 49.24C123.145 49.6506 122.94 50.1873 122.94 50.85C122.94 51.5126 123.141 52.0493 123.542 52.46C123.953 52.88 124.475 53.09 125.11 53.09C125.745 53.09 126.263 52.8846 126.664 52.474C127.075 52.054 127.28 51.5126 127.28 50.85C127.28 50.206 127.075 49.6693 126.664 49.24C126.263 48.82 125.745 48.61 125.11 48.61C124.475 48.61 123.957 48.82 123.556 49.24Z" fill="white"/>
<path d="M134.958 44.06L135.56 44.942C135.336 45.25 135.065 45.46 134.748 45.572C134.403 45.6933 134.011 45.7866 133.572 45.852C133.143 45.9173 132.737 46.034 132.354 46.202C131.402 46.6406 130.87 47.6533 130.758 49.24H130.786C130.991 48.8013 131.323 48.4466 131.78 48.176C132.247 47.9053 132.746 47.77 133.278 47.77C134.174 47.77 134.883 48.0546 135.406 48.624C135.938 49.1933 136.204 49.954 136.204 50.906C136.204 51.802 135.901 52.5673 135.294 53.202C134.697 53.8273 133.922 54.14 132.97 54.14C131.943 54.14 131.131 53.79 130.534 53.09C129.937 52.3993 129.638 51.4426 129.638 50.22C129.638 47.4946 130.417 45.8006 131.976 45.138C132.331 44.9793 132.741 44.8626 133.208 44.788C133.572 44.7226 133.833 44.6713 133.992 44.634C134.151 44.5966 134.319 44.5313 134.496 44.438C134.683 44.3446 134.837 44.2186 134.958 44.06ZM130.828 50.43C130.828 51.2326 131.024 51.8766 131.416 52.362C131.808 52.8473 132.317 53.09 132.942 53.09C133.549 53.09 134.043 52.8846 134.426 52.474C134.818 52.0726 135.014 51.5686 135.014 50.962C135.014 50.318 134.832 49.8 134.468 49.408C134.113 49.016 133.623 48.82 132.998 48.82C132.429 48.82 131.953 48.9786 131.57 49.296C131.169 49.6226 130.921 50.0006 130.828 50.43Z" fill="white"/>
<path d="M138.315 53.216C137.699 52.5813 137.391 51.7926 137.391 50.85C137.391 49.898 137.699 49.114 138.315 48.498C138.94 47.8726 139.752 47.56 140.751 47.56C141.749 47.56 142.557 47.8726 143.173 48.498C143.798 49.114 144.111 49.898 144.111 50.85C144.111 51.802 143.798 52.5906 143.173 53.216C142.557 53.832 141.749 54.14 140.751 54.14C139.761 54.14 138.949 53.832 138.315 53.216ZM139.197 49.24C138.786 49.6506 138.581 50.1873 138.581 50.85C138.581 51.5126 138.781 52.0493 139.183 52.46C139.593 52.88 140.116 53.09 140.751 53.09C141.385 53.09 141.903 52.8846 142.305 52.474C142.715 52.054 142.921 51.5126 142.921 50.85C142.921 50.206 142.715 49.6693 142.305 49.24C141.903 48.82 141.385 48.61 140.751 48.61C140.116 48.61 139.598 48.82 139.197 49.24Z" fill="white"/>
<path d="M146.847 56.8H145.727V47.7H146.847V48.442C147.071 48.1806 147.379 47.9706 147.771 47.812C148.163 47.644 148.569 47.56 148.989 47.56C149.885 47.56 150.589 47.8586 151.103 48.456C151.635 49.044 151.901 49.8093 151.901 50.752C151.901 51.7133 151.597 52.5206 150.991 53.174C150.393 53.818 149.605 54.14 148.625 54.14C147.869 54.14 147.276 53.9953 146.847 53.706V56.8ZM148.667 48.61C147.92 48.61 147.313 48.8993 146.847 49.478V52.6C147.341 52.9266 147.901 53.09 148.527 53.09C149.189 53.09 149.717 52.88 150.109 52.46C150.51 52.0306 150.711 51.4753 150.711 50.794C150.711 50.1313 150.529 49.604 150.165 49.212C149.801 48.8106 149.301 48.61 148.667 48.61Z" fill="white"/>
<path d="M157.712 47.7H158.986L156.466 54C156.009 55.1106 155.612 55.848 155.276 56.212C154.921 56.604 154.515 56.8 154.058 56.8C153.647 56.8 153.251 56.6693 152.868 56.408L153.232 55.554C153.531 55.694 153.764 55.764 153.932 55.764C154.193 55.764 154.427 55.652 154.632 55.428C154.847 55.204 155.061 54.84 155.276 54.336L155.416 54L152.392 47.7H153.736L155.584 51.704C155.621 51.7693 155.747 52.0866 155.962 52.656C156.046 52.348 156.144 52.026 156.256 51.69L157.712 47.7Z" fill="white"/>
<path d="M159.868 55.54H158.818V52.95H159.602C159.835 52.6606 160.04 52.194 160.218 51.55C160.395 50.8966 160.512 50.1686 160.568 49.366L160.666 47.7H164.964V52.95H166.014V55.54H164.964V54H159.868V55.54ZM161.716 48.75L161.646 49.8C161.59 50.5 161.478 51.1393 161.31 51.718C161.142 52.2966 160.969 52.7073 160.792 52.95H163.844V48.75H161.716Z" fill="white"/>
<path d="M167.737 53.216C167.121 52.5813 166.813 51.7926 166.813 50.85C166.813 49.898 167.121 49.114 167.737 48.498C168.362 47.8726 169.174 47.56 170.173 47.56C171.171 47.56 171.979 47.8726 172.595 48.498C173.22 49.114 173.533 49.898 173.533 50.85C173.533 51.802 173.22 52.5906 172.595 53.216C171.979 53.832 171.171 54.14 170.173 54.14C169.183 54.14 168.371 53.832 167.737 53.216ZM168.619 49.24C168.208 49.6506 168.003 50.1873 168.003 50.85C168.003 51.5126 168.203 52.0493 168.605 52.46C169.015 52.88 169.538 53.09 170.173 53.09C170.807 53.09 171.325 52.8846 171.727 52.474C172.137 52.054 172.343 51.5126 172.343 50.85C172.343 50.206 172.137 49.6693 171.727 49.24C171.325 48.82 170.807 48.61 170.173 48.61C169.538 48.61 169.02 48.82 168.619 49.24Z" fill="white"/>
<path d="M175.149 54V47.7C175.195 47.7 175.261 47.7 175.345 47.7C175.429 47.6906 175.55 47.686 175.709 47.686C175.867 47.6766 176.012 47.672 176.143 47.672C176.833 47.6533 177.263 47.644 177.431 47.644C179.241 47.644 180.147 48.1853 180.147 49.268C180.147 49.6413 180.03 49.9633 179.797 50.234C179.563 50.4953 179.26 50.654 178.887 50.71V50.738C179.867 50.9153 180.357 51.41 180.357 52.222C180.357 53.4446 179.391 54.056 177.459 54.056C177.365 54.056 176.955 54.0466 176.227 54.028C176.087 54.028 175.933 54.0233 175.765 54.014C175.597 54.014 175.466 54.0093 175.373 54C175.279 54 175.205 54 175.149 54ZM177.613 51.172H176.269V53.104C176.941 53.132 177.37 53.146 177.557 53.146C178.63 53.146 179.167 52.81 179.167 52.138C179.167 51.494 178.649 51.172 177.613 51.172ZM177.515 48.554C177.244 48.554 176.829 48.568 176.269 48.596V50.472H177.683C178.065 50.472 178.373 50.3833 178.607 50.206C178.84 50.0286 178.957 49.7906 178.957 49.492C178.957 48.8666 178.476 48.554 177.515 48.554Z" fill="white"/>
<path d="M182.403 49.03L182.109 48.134C182.734 47.7513 183.434 47.56 184.209 47.56C185.058 47.56 185.674 47.77 186.057 48.19C186.439 48.61 186.631 49.2586 186.631 50.136V54H185.567V53.188C185.072 53.7946 184.4 54.098 183.551 54.098C182.972 54.098 182.505 53.9253 182.151 53.58C181.796 53.2253 181.619 52.7493 181.619 52.152C181.619 51.536 181.838 51.0506 182.277 50.696C182.715 50.332 183.289 50.15 183.999 50.15C184.661 50.15 185.184 50.2853 185.567 50.556C185.567 49.8466 185.469 49.338 185.273 49.03C185.077 48.722 184.699 48.568 184.139 48.568C183.569 48.568 182.991 48.722 182.403 49.03ZM183.943 53.09C184.568 53.09 185.109 52.8193 185.567 52.278V51.48C185.175 51.2 184.703 51.06 184.153 51.06C183.77 51.06 183.448 51.1533 183.187 51.34C182.935 51.5173 182.809 51.7693 182.809 52.096C182.809 52.404 182.907 52.6466 183.103 52.824C183.308 53.0013 183.588 53.09 183.943 53.09Z" fill="white"/>
<path d="M194.246 54H193.126V51.34H189.626V54H188.506V47.7H189.626V50.29H193.126V47.7H194.246V54Z" fill="white"/>
<path d="M201.032 49.31L197.392 54H196.272V47.7H197.392V52.39L201.032 47.7H202.152V54H201.032V49.31Z" fill="white"/>
<path d="M209.158 52.432L209.508 53.314C208.901 53.8646 208.112 54.14 207.142 54.14C206.115 54.14 205.298 53.8413 204.692 53.244C204.076 52.6466 203.768 51.8486 203.768 50.85C203.768 49.9073 204.057 49.1233 204.636 48.498C205.205 47.8726 205.998 47.56 207.016 47.56C207.856 47.56 208.551 47.8306 209.102 48.372C209.662 48.904 209.942 49.5946 209.942 50.444C209.942 50.7146 209.918 50.9666 209.872 51.2H205.028C205.074 51.788 205.294 52.25 205.686 52.586C206.087 52.922 206.6 53.09 207.226 53.09C208.047 53.09 208.691 52.8706 209.158 52.432ZM206.96 48.61C206.409 48.61 205.952 48.764 205.588 49.072C205.233 49.38 205.023 49.786 204.958 50.29H208.78C208.752 49.7673 208.574 49.3566 208.248 49.058C207.93 48.7593 207.501 48.61 206.96 48.61Z" fill="white"/>
</svg>
