<svg width="50" height="50" viewBox="0 0 50 50" fill="none" xmlns="http://www.w3.org/2000/svg">
<path d="M24.9999 8.33329C29.5833 8.33329 33.3333 12.0833 33.3333 16.6666C33.3333 21.0416 28.9583 28.125 24.9999 33.125C21.0416 27.9166 16.6666 21.0416 16.6666 16.6666C16.6666 12.0833 20.4166 8.33329 24.9999 8.33329ZM24.9999 4.16663C18.1249 4.16663 12.4999 9.79163 12.4999 16.6666C12.4999 26.0416 24.9999 39.5833 24.9999 39.5833C24.9999 39.5833 37.4999 25.8333 37.4999 16.6666C37.4999 9.79163 31.8749 4.16663 24.9999 4.16663ZM24.9999 12.5C22.7083 12.5 20.8333 14.375 20.8333 16.6666C20.8333 18.9583 22.7083 20.8333 24.9999 20.8333C27.2916 20.8333 29.1666 18.9583 29.1666 16.6666C29.1666 14.375 27.2916 12.5 24.9999 12.5ZM41.6666 39.5833C41.6666 44.1666 34.1666 47.9166 24.9999 47.9166C15.8333 47.9166 8.33325 44.1666 8.33325 39.5833C8.33325 36.875 10.8333 34.5833 14.7916 32.9166L16.0416 34.7916C13.9583 35.8333 12.4999 37.0833 12.4999 38.5416C12.4999 41.4583 18.1249 43.75 24.9999 43.75C31.8749 43.75 37.4999 41.4583 37.4999 38.5416C37.4999 37.0833 36.0416 35.8333 33.7499 34.7916L34.9999 32.9166C39.1666 34.5833 41.6666 36.875 41.6666 39.5833Z" fill="white"/>
</svg>
