<svg width="54" height="54" viewBox="0 0 54 54" fill="none" xmlns="http://www.w3.org/2000/svg">
<g clip-path="url(#clip0_23_545)">
<path d="M33.75 10.125C34.6451 10.125 35.5035 10.4806 36.1365 11.1135C36.7694 11.7464 37.125 12.6049 37.125 13.5V40.5C37.125 41.3951 36.7694 42.2535 36.1365 42.8865C35.5035 43.5194 34.6451 43.875 33.75 43.875H20.25C19.3549 43.875 18.4965 43.5194 17.8635 42.8865C17.2306 42.2535 16.875 41.3951 16.875 40.5V13.5C16.875 12.6049 17.2306 11.7464 17.8635 11.1135C18.4965 10.4806 19.3549 10.125 20.25 10.125H33.75ZM20.25 6.75C18.4598 6.75 16.7429 7.46116 15.477 8.72703C14.2112 9.9929 13.5 11.7098 13.5 13.5V40.5C13.5 42.2902 14.2112 44.0071 15.477 45.273C16.7429 46.5388 18.4598 47.25 20.25 47.25H33.75C35.5402 47.25 37.2571 46.5388 38.523 45.273C39.7888 44.0071 40.5 42.2902 40.5 40.5V13.5C40.5 11.7098 39.7888 9.9929 38.523 8.72703C37.2571 7.46116 35.5402 6.75 33.75 6.75H20.25Z" fill="white"/>
<path d="M27 40.5001C27.8951 40.5001 28.7536 40.1445 29.3865 39.5115C30.0194 38.8786 30.375 38.0202 30.375 37.1251C30.375 36.23 30.0194 35.3715 29.3865 34.7386C28.7536 34.1056 27.8951 33.7501 27 33.7501C26.1049 33.7501 25.2465 34.1056 24.6135 34.7386C23.9806 35.3715 23.625 36.23 23.625 37.1251C23.625 38.0202 23.9806 38.8786 24.6135 39.5115C25.2465 40.1445 26.1049 40.5001 27 40.5001ZM5.39665 13.6958C5.59259 13.7995 5.76618 13.9407 5.90751 14.1115C6.04884 14.2823 6.15514 14.4792 6.22033 14.6911C6.28552 14.903 6.30833 15.1256 6.28745 15.3463C6.26657 15.567 6.20242 15.7814 6.09865 15.9773C4.30398 19.3739 3.36884 23.1585 3.37503 27.0001C3.37503 30.9826 4.36053 34.7356 6.09865 38.0228C6.30811 38.4184 6.35182 38.8811 6.22017 39.3089C6.08852 39.7368 5.79229 40.0949 5.39665 40.3043C5.00102 40.5138 4.53838 40.5575 4.11051 40.4258C3.68265 40.2942 3.32461 39.9979 3.11515 39.6023C1.06323 35.719 -0.00630298 31.3922 2.7943e-05 27.0001C2.7943e-05 22.4539 1.12728 18.1609 3.11515 14.3978C3.21882 14.2019 3.36008 14.0283 3.53086 13.887C3.70164 13.7456 3.89859 13.6393 4.11046 13.5741C4.32234 13.5089 4.54498 13.4861 4.76566 13.507C4.98635 13.5279 5.20077 13.592 5.39665 13.6958ZM48.6034 13.6958C48.7993 13.592 49.0137 13.5279 49.2344 13.507C49.4551 13.4861 49.6777 13.5089 49.8896 13.5741C50.1015 13.6393 50.2984 13.7456 50.4692 13.887C50.64 14.0283 50.7812 14.2019 50.8849 14.3978C52.937 18.2811 54.0065 22.6079 54 27.0001C54.0065 31.3922 52.937 35.719 50.8849 39.6023C50.6754 39.9979 50.3174 40.2942 49.8895 40.4258C49.4617 40.5575 48.999 40.5138 48.6034 40.3043C48.2078 40.0949 47.9115 39.7368 47.7799 39.3089C47.6482 38.8811 47.6919 38.4184 47.9014 38.0228C49.6961 34.6262 50.6312 30.8416 50.625 27.0001C50.625 23.0176 49.6395 19.2646 47.9014 15.9773C47.7976 15.7814 47.7335 15.567 47.7126 15.3463C47.6917 15.1256 47.7145 14.903 47.7797 14.6911C47.8449 14.4792 47.9512 14.2823 48.0925 14.1115C48.2339 13.9407 48.4075 13.7995 48.6034 13.6958ZM10.3174 18.6773C10.524 18.7579 10.7127 18.8784 10.8727 19.0319C11.0328 19.1855 11.1609 19.369 11.25 19.5721C11.339 19.7753 11.3871 19.9939 11.3915 20.2156C11.396 20.4374 11.3567 20.6578 11.2759 20.8643C10.5129 22.8199 10.1226 24.9009 10.125 27.0001C10.125 29.1668 10.53 31.2357 11.2725 33.1358C11.3667 33.3444 11.4175 33.5699 11.4217 33.7988C11.426 34.0276 11.3837 34.2549 11.2974 34.4668C11.211 34.6788 11.0825 34.8709 10.9196 35.0317C10.7566 35.1924 10.5627 35.3183 10.3496 35.4017C10.1365 35.4851 9.90862 35.5243 9.67988 35.5169C9.45115 35.5095 9.22631 35.4556 9.01904 35.3586C8.81178 35.2615 8.62641 35.1233 8.47422 34.9524C8.32204 34.7815 8.20621 34.5814 8.13378 34.3643C7.21735 32.0173 6.74803 29.5196 6.75003 27.0001C6.75003 24.4047 7.2394 21.9207 8.13378 19.6358C8.29651 19.2193 8.61787 18.8845 9.02728 18.7048C9.4367 18.5251 9.90071 18.5152 10.3174 18.6773ZM43.6827 18.6773C43.8892 18.5965 44.1096 18.5572 44.3313 18.5617C44.553 18.5661 44.7717 18.6142 44.9748 18.7033C45.1779 18.7923 45.3615 18.9205 45.5151 19.0805C45.6686 19.2405 45.7891 19.4292 45.8697 19.6358C46.7607 21.9207 47.25 24.4047 47.25 27.0001C47.25 29.5954 46.7607 32.0794 45.8663 34.3643C45.6882 34.7586 45.3655 35.0695 44.9649 35.2327C44.5642 35.3959 44.1161 35.399 43.7132 35.2413C43.3104 35.0836 42.9834 34.7772 42.8 34.3854C42.6165 33.9935 42.5906 33.5462 42.7275 33.1358C43.47 31.2357 43.875 29.1668 43.875 27.0001C43.875 24.8333 43.47 22.7644 42.7275 20.8643C42.5642 20.4476 42.573 19.9831 42.7522 19.573C42.9313 19.1629 43.266 18.8407 43.6827 18.6773Z" fill="white"/>
</g>
<defs>
<clipPath id="clip0_23_545">
<rect width="54" height="54" fill="white"/>
</clipPath>
</defs>
</svg>
