<svg width="50" height="50" viewBox="0 0 50 50" fill="none" xmlns="http://www.w3.org/2000/svg">
<path d="M45.8333 25C45.8333 13.4937 36.5062 4.16663 25 4.16663C13.4937 4.16663 4.16663 13.4937 4.16663 25C4.16663 36.5062 13.4937 45.8333 25 45.8333" stroke="white" stroke-width="3" stroke-linecap="round" stroke-linejoin="round"/>
<path d="M27.0833 4.27075C27.0833 4.27075 33.3333 12.4999 33.3333 24.9999M22.9166 45.7291C22.9166 45.7291 16.6666 37.4999 16.6666 24.9999C16.6666 12.4999 22.9166 4.27075 22.9166 4.27075M5.47913 32.2916H25M5.47913 17.7083H44.5208" stroke="white" stroke-width="3" stroke-linecap="round" stroke-linejoin="round"/>
<path d="M45.5812 37.3271C46.6103 37.9604 46.5458 39.5 45.4874 39.6208L40.1395 40.2271L37.7416 45.0438C37.2666 46 35.7978 45.5313 35.5541 44.3479L32.9395 31.6063C32.7333 30.6063 33.6333 29.9771 34.502 30.5125L45.5812 37.3271Z" stroke="white" stroke-width="3"/>
</svg>
